<?xml version="1.0" encoding="UTF-8" standalone="no"?>
<svg
   width="158"
   height="158"
   viewBox="0 0 158 158"
   fill="none"
   version="1.1"
   id="svg47"
   sodipodi:docname="notes_widget.svg"
   inkscape:version="1.3.2 (091e20e, 2023-11-25, custom)"
   xmlns:inkscape="http://www.inkscape.org/namespaces/inkscape"
   xmlns:sodipodi="http://sodipodi.sourceforge.net/DTD/sodipodi-0.dtd"
   xmlns="http://www.w3.org/2000/svg"
   xmlns:svg="http://www.w3.org/2000/svg">
  <sodipodi:namedview
     id="namedview47"
     pagecolor="#ffffff"
     bordercolor="#000000"
     borderopacity="0.25"
     inkscape:showpageshadow="2"
     inkscape:pageopacity="0.0"
     inkscape:pagecheckerboard="0"
     inkscape:deskcolor="#d1d1d1"
     inkscape:zoom="2.7246835"
     inkscape:cx="105.70035"
     inkscape:cy="80.192799"
     inkscape:window-width="1920"
     inkscape:window-height="1057"
     inkscape:window-x="-8"
     inkscape:window-y="-8"
     inkscape:window-maximized="1"
     inkscape:current-layer="g45" />
  <g
     clip-path="url(#clip0_2502_4016)"
     id="g45">
    <rect
       width="158"
       height="158"
       rx="22"
       fill="white"
       id="rect1" />
    <mask
       id="path-2-inside-1_2502_4016"
       fill="white">
      <path
         d="M0 0H158V43H0V0Z"
         id="path1" />
    </mask>
    <path
       d="M0 0H158V43H0V0Z"
       fill="url(#paint0_linear_2502_4016)"
       id="path2" />
    <path
       d="M158 42H0V44H158V42Z"
       fill="black"
       fill-opacity="0.12"
       mask="url(#path-2-inside-1_2502_4016)"
       id="path3" />
    <path
       d="M33.2739 15.4871H25.5927C24.9961 15.4871 24.6398 15.3585 24.1758 14.9887L23.7117 14.619C23.1234 14.1527 22.6925 14 21.8225 14H19.4775C17.9198 14 17 14.8842 17 16.5804V18.8312H36V18.1077C36 16.3875 35.0637 15.4871 33.2739 15.4871ZM19.7261 29H33.4727C35.072 29 36 28.0997 36 26.3794V19.9887H17V26.3794C17 28.1077 17.9363 29 19.7261 29Z"
       fill="white"
       id="path4" />
    <path
       d="M49.2603 26.5V16.2834H50.8462L55.866 23.321H55.9792V16.2834H57.7351V26.5H56.1562L51.1365 19.4624H51.0232V26.5H49.2603ZM63.4204 26.6558C61.0981 26.6558 59.6963 25.1406 59.6963 22.6343V22.6201C59.6963 20.135 61.1194 18.6128 63.4204 18.6128C65.7285 18.6128 67.1445 20.1279 67.1445 22.6201V22.6343C67.1445 25.1406 65.7356 26.6558 63.4204 26.6558ZM63.4204 25.2256C64.6453 25.2256 65.3391 24.2698 65.3391 22.6414V22.6272C65.3391 20.9988 64.6382 20.0359 63.4204 20.0359C62.1956 20.0359 61.4946 20.9988 61.4946 22.6272V22.6414C61.4946 24.2698 62.1956 25.2256 63.4204 25.2256ZM71.959 26.5354C70.1819 26.5354 69.4526 25.9407 69.4526 24.4468V20.1279H68.249V18.7615H69.4526V16.864H71.2439V18.7615H72.8794V20.1279H71.2439V24.0291C71.2439 24.8008 71.5483 25.1265 72.2847 25.1265C72.5325 25.1265 72.667 25.1194 72.8794 25.0981V26.4575C72.6245 26.5071 72.2988 26.5354 71.959 26.5354ZM77.8779 26.6558C75.5769 26.6558 74.1821 25.1123 74.1821 22.6484V22.6414C74.1821 20.2058 75.5911 18.6128 77.793 18.6128C79.9949 18.6128 81.3542 20.1562 81.3542 22.4927V23.0732H75.9451C75.9663 24.4609 76.7168 25.2681 77.9133 25.2681C78.8691 25.2681 79.4143 24.7866 79.5842 24.4326L79.6055 24.3831H81.2834L81.2622 24.4468C81.0144 25.4451 79.9807 26.6558 77.8779 26.6558ZM77.8142 19.9934C76.8301 19.9934 76.0938 20.6589 75.9592 21.8909H79.6338C79.5134 20.6235 78.7983 19.9934 77.8142 19.9934ZM86.0413 26.6558C84.073 26.6558 82.8835 25.7495 82.7349 24.4397V24.4255H84.4836L84.4907 24.4397C84.6748 24.9778 85.1917 25.353 86.0696 25.353C86.9475 25.353 87.5564 24.9565 87.5564 24.376V24.3618C87.5564 23.9087 87.2166 23.6113 86.3669 23.4202L85.1138 23.137C83.6411 22.8113 82.9402 22.1174 82.9402 20.9775V20.9705C82.9402 19.5757 84.2146 18.6128 86.0413 18.6128C87.9246 18.6128 89.0503 19.5474 89.1636 20.8005V20.8147H87.5068L87.4998 20.7935C87.3723 20.3049 86.8625 19.9084 86.0342 19.9084C85.2483 19.9084 84.6819 20.2908 84.6819 20.8713V20.8784C84.6819 21.3315 85.0076 21.6077 85.843 21.7988L87.0962 22.075C88.6113 22.4148 89.3264 23.0591 89.3264 24.1848V24.199C89.3264 25.6716 87.9458 26.6558 86.0413 26.6558Z"
       fill="white"
       id="path5" />
    <g
       clip-path="url(#clip1_2502_4016)"
       id="g44">
      <circle
         cx="1"
         cy="47"
         r="1"
         fill="#DDDDDE"
         id="circle5" />
      <circle
         cx="5"
         cy="47"
         r="1"
         fill="#DDDDDE"
         id="circle6" />
      <circle
         cx="9"
         cy="47"
         r="1"
         fill="#DDDDDE"
         id="circle7" />
      <circle
         cx="13"
         cy="47"
         r="1"
         fill="#DDDDDE"
         id="circle8" />
      <circle
         cx="17"
         cy="47"
         r="1"
         fill="#DDDDDE"
         id="circle9" />
      <circle
         cx="21"
         cy="47"
         r="1"
         fill="#DDDDDE"
         id="circle10" />
      <circle
         cx="25"
         cy="47"
         r="1"
         fill="#DDDDDE"
         id="circle11" />
      <circle
         cx="29"
         cy="47"
         r="1"
         fill="#DDDDDE"
         id="circle12" />
      <circle
         cx="33"
         cy="47"
         r="1"
         fill="#DDDDDE"
         id="circle13" />
      <circle
         cx="37"
         cy="47"
         r="1"
         fill="#DDDDDE"
         id="circle14" />
      <circle
         cx="41"
         cy="47"
         r="1"
         fill="#DDDDDE"
         id="circle15" />
      <circle
         cx="45"
         cy="47"
         r="1"
         fill="#DDDDDE"
         id="circle16" />
      <circle
         cx="49"
         cy="47"
         r="1"
         fill="#DDDDDE"
         id="circle17" />
      <circle
         cx="53"
         cy="47"
         r="1"
         fill="#DDDDDE"
         id="circle18" />
      <circle
         cx="57"
         cy="47"
         r="1"
         fill="#DDDDDE"
         id="circle19" />
      <circle
         cx="61"
         cy="47"
         r="1"
         fill="#DDDDDE"
         id="circle20" />
      <circle
         cx="65"
         cy="47"
         r="1"
         fill="#DDDDDE"
         id="circle21" />
      <circle
         cx="69"
         cy="47"
         r="1"
         fill="#DDDDDE"
         id="circle22" />
      <circle
         cx="73"
         cy="47"
         r="1"
         fill="#DDDDDE"
         id="circle23" />
      <circle
         cx="77"
         cy="47"
         r="1"
         fill="#DDDDDE"
         id="circle24" />
      <circle
         cx="81"
         cy="47"
         r="1"
         fill="#DDDDDE"
         id="circle25" />
      <circle
         cx="85"
         cy="47"
         r="1"
         fill="#DDDDDE"
         id="circle26" />
      <circle
         cx="89"
         cy="47"
         r="1"
         fill="#DDDDDE"
         id="circle27" />
      <circle
         cx="93"
         cy="47"
         r="1"
         fill="#DDDDDE"
         id="circle28" />
      <circle
         cx="97"
         cy="47"
         r="1"
         fill="#DDDDDE"
         id="circle29" />
      <circle
         cx="101"
         cy="47"
         r="1"
         fill="#DDDDDE"
         id="circle30" />
      <circle
         cx="105"
         cy="47"
         r="1"
         fill="#DDDDDE"
         id="circle31" />
      <circle
         cx="109"
         cy="47"
         r="1"
         fill="#DDDDDE"
         id="circle32" />
      <circle
         cx="113"
         cy="47"
         r="1"
         fill="#DDDDDE"
         id="circle33" />
      <circle
         cx="117"
         cy="47"
         r="1"
         fill="#DDDDDE"
         id="circle34" />
      <circle
         cx="121"
         cy="47"
         r="1"
         fill="#DDDDDE"
         id="circle35" />
      <circle
         cx="125"
         cy="47"
         r="1"
         fill="#DDDDDE"
         id="circle36" />
      <circle
         cx="129"
         cy="47"
         r="1"
         fill="#DDDDDE"
         id="circle37" />
      <circle
         cx="133"
         cy="47"
         r="1"
         fill="#DDDDDE"
         id="circle38" />
      <circle
         cx="137"
         cy="47"
         r="1"
         fill="#DDDDDE"
         id="circle39" />
      <circle
         cx="141"
         cy="47"
         r="1"
         fill="#DDDDDE"
         id="circle40" />
      <circle
         cx="145"
         cy="47"
         r="1"
         fill="#DDDDDE"
         id="circle41" />
      <circle
         cx="149"
         cy="47"
         r="1"
         fill="#DDDDDE"
         id="circle42" />
      <circle
         cx="153"
         cy="47"
         r="1"
         fill="#DDDDDE"
         id="circle43" />
      <circle
         cx="157"
         cy="47"
         r="1"
         fill="#DDDDDE"
         id="circle44" />
    </g>
    <rect
       width="158"
       height="110"
       transform="translate(0 48)"
       fill="white"
       id="rect44" />
    <path
       d="M19.688 137V133.058L16.438 127.84H17.7393L20.2085 131.909H20.3101L22.7793 127.84H24.0806L20.8306 133.058V137H19.688ZM27.2607 137.121C25.3057 137.121 24.125 135.75 24.125 133.604V133.598C24.125 131.484 25.3311 130.037 27.1909 130.037C29.0508 130.037 30.1807 131.42 30.1807 133.464V133.896H25.2549C25.2866 135.312 26.0674 136.137 27.2861 136.137C28.2129 136.137 28.7842 135.699 28.9683 135.286L28.9937 135.229H30.0981L30.0854 135.28C29.8506 136.207 28.873 137.121 27.2607 137.121ZM27.1846 131.021C26.1689 131.021 25.3945 131.712 25.2739 133.014H29.0571C28.9429 131.662 28.1938 131.021 27.1846 131.021ZM34.2432 137.121C32.7197 137.121 31.6724 136.384 31.5454 135.254H32.6753C32.8594 135.826 33.4053 136.2 34.2812 136.2C35.2017 136.2 35.8555 135.762 35.8555 135.14V135.127C35.8555 134.664 35.5063 134.34 34.6621 134.137L33.6021 133.883C32.3198 133.579 31.7422 133.02 31.7422 132.036V132.03C31.7422 130.894 32.834 130.037 34.2876 130.037C35.7222 130.037 36.7188 130.754 36.8711 131.871H35.7856C35.6396 131.332 35.1064 130.957 34.2812 130.957C33.4688 130.957 32.8721 131.376 32.8721 131.979V131.992C32.8721 132.455 33.2148 132.747 34.021 132.944L35.0747 133.198C36.3633 133.509 36.9854 134.067 36.9854 135.045V135.058C36.9854 136.276 35.7983 137.121 34.2432 137.121ZM41.0669 137.051C39.6577 137.051 39.0674 136.53 39.0674 135.223V131.071H37.9883V130.157H39.0674V128.386H40.21V130.157H41.708V131.071H40.21V134.943C40.21 135.75 40.4893 136.073 41.2002 136.073C41.397 136.073 41.5049 136.067 41.708 136.048V136.987C41.4922 137.025 41.2827 137.051 41.0669 137.051ZM46.0498 137.121C44.0947 137.121 42.9141 135.75 42.9141 133.604V133.598C42.9141 131.484 44.1201 130.037 45.98 130.037C47.8398 130.037 48.9697 131.42 48.9697 133.464V133.896H44.0439C44.0757 135.312 44.8564 136.137 46.0752 136.137C47.002 136.137 47.5732 135.699 47.7573 135.286L47.7827 135.229H48.8872L48.8745 135.28C48.6396 136.207 47.6621 137.121 46.0498 137.121ZM45.9736 131.021C44.958 131.021 44.1836 131.712 44.063 133.014H47.8462C47.7319 131.662 46.9829 131.021 45.9736 131.021ZM50.6836 137V130.157H51.7881V131.173H51.8896C52.1499 130.456 52.791 130.037 53.7178 130.037C53.9272 130.037 54.1621 130.062 54.27 130.081V131.154C54.0415 131.116 53.832 131.09 53.5908 131.09C52.5371 131.09 51.7881 131.757 51.7881 132.76V137H50.6836ZM57.9707 137.121C56.2378 137.121 55.1016 135.718 55.1016 133.585V133.572C55.1016 131.427 56.2314 130.037 57.9707 130.037C58.9102 130.037 59.729 130.506 60.1035 131.236H60.2051V127.44H61.3096V137H60.2051V135.908H60.1035C59.6846 136.67 58.9229 137.121 57.9707 137.121ZM58.2246 136.143C59.4688 136.143 60.2305 135.166 60.2305 133.585V133.572C60.2305 131.992 59.4688 131.014 58.2246 131.014C56.9741 131.014 56.2314 131.979 56.2314 133.572V133.585C56.2314 135.178 56.9741 136.143 58.2246 136.143ZM65.3086 137.121C64.0073 137.121 63.0234 136.333 63.0234 135.089V135.077C63.0234 133.858 63.9248 133.153 65.5181 133.058L67.4795 132.938V132.315C67.4795 131.471 66.9653 131.014 65.9434 131.014C65.1245 131.014 64.585 131.319 64.4072 131.852L64.4009 131.871H63.2964L63.3027 131.833C63.4805 130.76 64.5215 130.037 65.9814 130.037C67.6509 130.037 68.584 130.894 68.584 132.315V137H67.4795V135.991H67.3779C66.9463 136.721 66.229 137.121 65.3086 137.121ZM64.1533 135.064C64.1533 135.756 64.7437 136.162 65.5371 136.162C66.6606 136.162 67.4795 135.426 67.4795 134.448V133.826L65.6514 133.94C64.6104 134.004 64.1533 134.372 64.1533 135.051V135.064ZM70.9326 139.399C70.7866 139.399 70.5962 139.387 70.4438 139.361V138.454C70.5771 138.479 70.7485 138.485 70.9009 138.485C71.5293 138.485 71.9102 138.2 72.1577 137.413L72.2847 137.006L69.752 130.157H70.9326L72.8115 135.788H72.9131L74.7856 130.157H75.9473L73.2749 137.419C72.71 138.955 72.145 139.399 70.9326 139.399Z"
       fill="#8A8A8D"
       id="path45" />
    <g
       id="text47"
       style="font-size:13.3333px;font-family:'Segoe UI';-inkscape-font-specification:'Segoe UI';fill:#ffffff;stroke-width:19.043;stroke-linecap:round;stroke-linejoin:round"
       aria-label="How to make poison:&#10;tutorial">
      <path
         style="font-family:'SF Pro';-inkscape-font-specification:'SF Pro';fill:#000000"
         d="m 16.5967,70.708008 h 1.171872 v -4.277333 h 5.156237 v 4.277333 h 1.171872 V 61.3135 h -1.171872 v 4.06249 H 17.768572 V 61.3135 H 16.5967 Z m 11.953094,0.130208 q 0.937498,0 1.640621,-0.429687 0.703124,-0.429686 1.093748,-1.217444 0.397134,-0.787759 0.397134,-1.868485 v -0.01302 q 0,-1.080727 -0.397134,-1.861975 -0.390624,-0.787758 -1.100258,-1.210934 -0.703123,-0.429686 -1.640621,-0.429686 -0.930987,0 -1.640621,0.429686 -0.703123,0.423176 -1.100257,1.210934 -0.390624,0.781248 -0.390624,1.861975 v 0.01302 q 0,1.074216 0.390624,1.868485 0.397134,0.787758 1.100257,1.217444 0.709634,0.429687 1.647131,0.429687 z m 0.0065,-1.002602 q -0.598957,0 -1.048175,-0.292968 -0.442707,-0.299478 -0.690102,-0.859373 -0.247395,-0.566404 -0.247395,-1.360673 v -0.01302 q 0,-0.794269 0.247395,-1.347653 0.247395,-0.559894 0.690102,-0.852862 0.449218,-0.299479 1.035154,-0.299479 0.598957,0 1.041664,0.292968 0.449218,0.292968 0.690103,0.852863 0.247395,0.559894 0.247395,1.354163 v 0.01302 q 0,0.794269 -0.247395,1.360673 -0.240885,0.559895 -0.683593,0.859373 -0.436196,0.292968 -1.035153,0.292968 z m 5.605455,0.872394 h 1.15234 l 1.523434,-5.240872 h 0.02604 l 1.529944,5.240872 h 1.152341 l 1.888016,-6.770816 h -1.119789 l -1.354164,5.507798 h -0.02604 l -1.536455,-5.507798 h -1.093747 l -1.529944,5.507798 h -0.02604 l -1.354164,-5.507798 h -1.126299 z m 13.131477,0.130208 q 0.16927,0 0.33203,-0.01953 0.16927,-0.01302 0.273437,-0.02604 v -0.917966 q -0.07162,0.0065 -0.169271,0.01953 -0.09114,0.0065 -0.195312,0.0065 -0.455728,0 -0.690102,-0.188801 -0.234374,-0.195312 -0.234374,-0.735676 v -4.101552 h 1.289059 v -0.937497 h -1.289059 v -1.829423 h -1.171872 v 1.829423 h -0.989581 v 0.937497 h 0.989581 v 4.108063 q 0,0.970049 0.462238,1.412757 0.462238,0.442707 1.393226,0.442707 z m 4.427073,0 q 0.937497,0 1.64062,-0.429687 0.703124,-0.429686 1.093748,-1.217444 0.397134,-0.787759 0.397134,-1.868485 v -0.01302 q 0,-1.080727 -0.397134,-1.861975 -0.390624,-0.787758 -1.100258,-1.210934 -0.703123,-0.429686 -1.640621,-0.429686 -0.930987,0 -1.640621,0.429686 -0.703123,0.423176 -1.100257,1.210934 -0.390624,0.781248 -0.390624,1.861975 v 0.01302 q 0,1.074216 0.390624,1.868485 0.397134,0.787758 1.100257,1.217444 0.709634,0.429687 1.647132,0.429687 z m 0.0065,-1.002602 q -0.598957,0 -1.048175,-0.292968 -0.442707,-0.299478 -0.690102,-0.859373 -0.247395,-0.566404 -0.247395,-1.360673 v -0.01302 q 0,-0.794269 0.247395,-1.347653 0.247395,-0.559894 0.690102,-0.852862 0.449218,-0.299479 1.035154,-0.299479 0.598957,0 1.041664,0.292968 0.449218,0.292968 0.690103,0.852863 0.247395,0.559894 0.247395,1.354163 v 0.01302 q 0,0.794269 -0.247395,1.360673 -0.240885,0.559895 -0.683592,0.859373 -0.436197,0.292968 -1.035154,0.292968 z m 6.99868,0.872394 h 1.132809 v -4.244781 q 0,-0.475259 0.201823,-0.846352 0.201822,-0.371093 0.546873,-0.585936 0.351562,-0.221354 0.800779,-0.221354 0.423176,0 0.729165,0.169271 0.312499,0.16927 0.48177,0.475259 0.175781,0.305989 0.175781,0.716144 v 4.537749 h 1.132809 v -4.303375 q 0,-0.462238 0.195312,-0.82031 0.195312,-0.364583 0.540364,-0.566405 0.345051,-0.208333 0.794268,-0.208333 0.449218,0 0.761717,0.175781 0.312499,0.175781 0.475259,0.507811 0.169271,0.332031 0.169271,0.800779 v 4.414052 h 1.132809 V 66.03354 q 0,-0.677081 -0.273436,-1.171872 -0.273437,-0.5013 -0.768228,-0.774737 -0.49479,-0.279947 -1.165361,-0.279947 -0.475259,0 -0.891925,0.156249 -0.410155,0.15625 -0.729165,0.449218 -0.312499,0.286457 -0.501301,0.696613 h -0.02604 q -0.143229,-0.416666 -0.416666,-0.703124 -0.273437,-0.292968 -0.65104,-0.442707 -0.371093,-0.156249 -0.833331,-0.156249 -0.65104,0 -1.13932,0.312499 -0.48828,0.305989 -0.716144,0.807289 h -0.02604 v -0.98958 H 58.7255 Z m 12.688767,0.130208 q 0.455728,0 0.859373,-0.149739 0.410155,-0.15625 0.735675,-0.429687 0.32552,-0.279947 0.520832,-0.65104 h 0.02604 v 1.100258 h 1.13281 V 66.02703 q 0,-0.677082 -0.31901,-1.171872 -0.31901,-0.501301 -0.904946,-0.774738 -0.579425,-0.273436 -1.380204,-0.273436 -0.794269,0 -1.373695,0.273436 -0.579425,0.266927 -0.911456,0.722655 -0.32552,0.455728 -0.377603,1.015622 l -0.0065,0.07161 h 1.093748 l 0.01302,-0.05859 q 0.09766,-0.455728 0.49479,-0.735675 0.403645,-0.286458 1.054685,-0.286458 0.709633,0 1.093747,0.358072 0.390624,0.351562 0.390624,0.97005 V 68.1364 q 0,0.48828 -0.253906,0.878904 -0.247395,0.390624 -0.677081,0.618488 -0.423176,0.221353 -0.957029,0.221353 -0.611978,0 -0.98307,-0.286457 Q 70.32052,69.28223 70.32052,68.79395 v -0.01302 q 0,-0.475259 0.371093,-0.761716 0.377603,-0.286458 1.054685,-0.32552 l 2.376296,-0.143229 V 66.67156 l -2.506504,0.143228 q -0.774738,0.04557 -1.328122,0.292968 -0.546874,0.247396 -0.839842,0.670572 -0.286457,0.423176 -0.286457,1.002601 v 0.01302 q 0,0.611978 0.279947,1.074216 0.286458,0.462239 0.794269,0.716144 0.507811,0.253906 1.178382,0.253906 z m 4.804676,-0.130208 h 1.13281 V 61.3135 h -1.13281 z m 4.277333,0 h 1.315101 l -3.138013,-3.990876 -0.755206,0.755207 z m -3.398429,-2.311192 1.321611,-1.263018 h 0.09115 l 3.209627,-3.196606 h -1.373694 l -2.968743,2.988273 h -0.279947 z m 7.962222,2.4414 q 0.553384,0 1.028644,-0.149739 0.475259,-0.15625 0.846352,-0.429687 0.371092,-0.279947 0.605467,-0.644529 0.240885,-0.364583 0.32552,-0.781248 l 0.01302,-0.0651 h -1.113279 l -0.01953,0.05859 q -0.09766,0.292968 -0.32552,0.520832 -0.227864,0.227864 -0.566405,0.358072 -0.338541,0.130208 -0.768227,0.130208 -0.611978,0 -1.061195,-0.266926 -0.449218,-0.273437 -0.696613,-0.781248 -0.240885,-0.507811 -0.240885,-1.223955 v -0.436197 q 0,-0.755207 0.247395,-1.269528 0.247396,-0.520832 0.677082,-0.781248 0.429686,-0.266927 0.97005,-0.266927 0.540363,0 0.957028,0.253906 0.416666,0.247395 0.65104,0.761717 0.240885,0.514321 0.240885,1.30208 v 0.436197 l 0.572915,-0.820311 h -4.89582 v 0.885415 h 5.455715 v -0.416666 q 0,-1.015623 -0.358072,-1.78385 -0.358072,-0.768227 -1.028643,-1.191403 -0.664061,-0.429686 -1.588538,-0.429686 -0.924477,0 -1.608069,0.449217 -0.683592,0.442707 -1.061195,1.243487 -0.377603,0.794268 -0.377603,1.842443 v 0.0065 q 0,1.061196 0.371093,1.848954 0.377603,0.781248 1.074216,1.210934 0.703123,0.429687 1.673172,0.429687 z m 6.777323,2.148432 h 1.13281 v -3.41145 h 0.02604 q 0.214844,0.390624 0.533853,0.677082 0.32552,0.279947 0.742186,0.436197 0.416666,0.149739 0.891925,0.149739 0.852862,0 1.490881,-0.429687 0.64453,-0.436196 1.002602,-1.223955 0.364582,-0.787758 0.364582,-1.855464 v -0.0065 q 0,-1.067706 -0.358072,-1.855464 -0.358072,-0.794269 -1.009112,-1.223956 -0.644529,-0.436196 -1.510412,-0.436196 -0.48177,0 -0.891925,0.156249 -0.410156,0.15625 -0.729165,0.442707 -0.312499,0.279948 -0.527343,0.677082 h -0.02604 v -1.14583 h -1.13281 z m 3.08593,-3.151034 q -0.572915,0 -1.015623,-0.312499 -0.436196,-0.312499 -0.690102,-0.872394 -0.253906,-0.566404 -0.253906,-1.321611 v -0.0065 q 0,-0.761717 0.247396,-1.321612 0.253905,-0.566404 0.696612,-0.878904 0.442708,-0.312499 1.015623,-0.312499 0.598957,0 1.035154,0.305989 0.436196,0.299478 0.670571,0.865883 0.234374,0.559895 0.234374,1.341143 v 0.0065 q 0,0.768227 -0.234374,1.334632 -0.234375,0.559895 -0.670571,0.865883 -0.436197,0.305989 -1.035154,0.305989 z m 7.044258,1.002602 q 0.9375,0 1.64062,-0.429687 0.70312,-0.429686 1.09375,-1.217444 0.39713,-0.787759 0.39713,-1.868485 v -0.01302 q 0,-1.080727 -0.39713,-1.861975 -0.39063,-0.787758 -1.10026,-1.210934 -0.70312,-0.429686 -1.64062,-0.429686 -0.93099,0 -1.64062,0.429686 -0.703126,0.423176 -1.100261,1.210934 -0.390624,0.781248 -0.390624,1.861975 v 0.01302 q 0,1.074216 0.390624,1.868485 0.397135,0.787758 1.100261,1.217444 0.70963,0.429687 1.64713,0.429687 z m 0.007,-1.002602 q -0.59896,0 -1.04818,-0.292968 -0.4427,-0.299478 -0.6901,-0.859373 -0.247393,-0.566404 -0.247393,-1.360673 v -0.01302 q 0,-0.794269 0.247393,-1.347653 0.2474,-0.559894 0.6901,-0.852862 0.44922,-0.299479 1.03516,-0.299479 0.59895,0 1.04166,0.292968 0.44922,0.292968 0.6901,0.852863 0.2474,0.559894 0.2474,1.354163 v 0.01302 q 0,0.794269 -0.2474,1.360673 -0.24088,0.559895 -0.68359,0.859373 -0.43619,0.292968 -1.03515,0.292968 z m 4.33593,0.872394 h 1.1328 v -6.770816 h -1.1328 z m 0.5664,-7.916647 q 0.29948,0 0.5013,-0.208333 0.20833,-0.208332 0.20833,-0.5013 0,-0.299479 -0.20833,-0.501301 -0.20182,-0.208333 -0.5013,-0.208333 -0.29297,0 -0.5013,0.208333 -0.20833,0.201822 -0.20833,0.501301 0,0.292968 0.20833,0.5013 0.20833,0.208333 0.5013,0.208333 z m 4.51171,8.046855 q 0.75521,0 1.34765,-0.253906 0.59896,-0.260416 0.9375,-0.716144 0.34505,-0.455728 0.34505,-1.048174 v -0.0065 q 0,-0.722654 -0.41666,-1.15234 -0.41667,-0.436197 -1.44531,-0.683593 l -1.07422,-0.260416 q -0.37109,-0.09115 -0.60547,-0.227864 -0.23437,-0.136718 -0.34505,-0.319009 -0.10416,-0.188802 -0.10416,-0.416666 v -0.0065 q 0,-0.299479 0.15625,-0.520832 0.16276,-0.227864 0.46223,-0.351562 0.29948,-0.123697 0.70964,-0.123697 0.63151,0 0.99609,0.299478 0.37109,0.299478 0.4362,0.794269 l 0.007,0.04557 h 1.08072 l -0.007,-0.08464 q -0.0391,-0.566404 -0.35807,-1.015622 -0.3125,-0.455728 -0.86588,-0.716144 -0.54688,-0.266926 -1.28906,-0.266926 -0.72917,0 -1.29557,0.253905 -0.5599,0.253906 -0.87891,0.703123 -0.3125,0.449218 -0.3125,1.035154 v 0.0065 q 0,0.48828 0.20834,0.852863 0.20833,0.364582 0.625,0.618488 0.42317,0.247395 1.06119,0.403645 l 1.07422,0.260416 q 0.57942,0.143229 0.80078,0.364582 0.22135,0.221354 0.22135,0.585936 v 0.0065 q 0,0.305988 -0.17578,0.533852 -0.17578,0.221354 -0.5013,0.345052 -0.32552,0.117187 -0.78776,0.117187 -0.6901,0 -1.07422,-0.279947 -0.38411,-0.286458 -0.48828,-0.794269 l -0.013,-0.0651 h -1.13281 l 0.007,0.05859 q 0.0716,0.605468 0.40365,1.061196 0.33854,0.455728 0.91796,0.709633 0.57943,0.253906 1.3737,0.253906 z m 6.60805,0 q 0.9375,0 1.64062,-0.429687 0.70312,-0.429686 1.09375,-1.217444 0.39713,-0.787759 0.39713,-1.868485 v -0.01302 q 0,-1.080727 -0.39713,-1.861975 -0.39063,-0.787758 -1.10026,-1.210934 -0.70312,-0.429686 -1.64062,-0.429686 -0.93099,0 -1.64062,0.429686 -0.70312,0.423176 -1.10026,1.210934 -0.39062,0.781248 -0.39062,1.861975 v 0.01302 q 0,1.074216 0.39062,1.868485 0.39714,0.787758 1.10026,1.217444 0.70963,0.429687 1.64713,0.429687 z m 0.007,-1.002602 q -0.59896,0 -1.04817,-0.292968 -0.44271,-0.299478 -0.69011,-0.859373 -0.24739,-0.566404 -0.24739,-1.360673 v -0.01302 q 0,-0.794269 0.24739,-1.347653 0.2474,-0.559894 0.69011,-0.852862 0.44921,-0.299479 1.03515,-0.299479 0.59896,0 1.04166,0.292968 0.44922,0.292968 0.69011,0.852863 0.24739,0.559894 0.24739,1.354163 v 0.01302 q 0,0.794269 -0.24739,1.360673 -0.24089,0.559895 -0.6836,0.859373 -0.43619,0.292968 -1.03515,0.292968 z m 4.26431,0.872394 h 1.13281 v -3.984365 q 0,-0.579426 0.21485,-1.009112 0.22135,-0.429687 0.61848,-0.664061 0.39714,-0.240885 0.93099,-0.240885 0.78125,0 1.16536,0.442707 0.39063,0.436197 0.39063,1.263018 v 4.192698 h 1.13281 v -4.39452 q 0,-1.158852 -0.61849,-1.829423 -0.61198,-0.677081 -1.72526,-0.677081 -0.76822,0 -1.28906,0.312499 -0.52083,0.305989 -0.79427,0.781248 h -0.026 V 63.937192 H 122.267 Z m 7.72134,0.09114 q 0.31249,0 0.52734,-0.214843 0.21484,-0.214843 0.21484,-0.527342 0,-0.312499 -0.21484,-0.527343 -0.21485,-0.214843 -0.52734,-0.214843 -0.3125,0 -0.52735,0.214843 -0.21484,0.214844 -0.21484,0.527343 0,0.312499 0.21484,0.527342 0.21485,0.214843 0.52735,0.214843 z m 0,-5.039049 q 0.31249,0 0.52734,-0.214844 0.21484,-0.214843 0.21484,-0.527342 0,-0.312499 -0.21484,-0.527342 -0.21485,-0.214844 -0.52734,-0.214844 -0.3125,0 -0.52735,0.214844 -0.21484,0.214843 -0.21484,0.527342 0,0.312499 0.21484,0.527342 0.21485,0.214844 0.52735,0.214844 z"
         id="path48" />
      <path
         style="font-family:'SF Pro';-inkscape-font-specification:'SF Pro';fill:#000000"
         d="m 18.621434,87.799745 q 0.169271,0 0.332031,-0.01953 0.16927,-0.01302 0.273436,-0.02604 v -0.917966 q -0.07161,0.0065 -0.16927,0.01953 -0.09115,0.0065 -0.195312,0.0065 -0.455728,0 -0.690103,-0.188802 -0.234374,-0.195312 -0.234374,-0.735675 v -4.101552 h 1.289059 V 80.898721 H 17.937842 V 79.069299 H 16.76597 v 1.829422 h -0.989581 v 0.937498 h 0.989581 v 4.108062 q 0,0.97005 0.462238,1.412757 0.462239,0.442707 1.393226,0.442707 z m 4.127594,0 q 0.514321,0 0.917966,-0.143229 0.403645,-0.143228 0.690103,-0.390624 0.292968,-0.247395 0.475259,-0.559894 h 0.02604 v 0.963539 h 1.13281 v -6.770816 h -1.13281 v 3.984365 q 0,0.429686 -0.123697,0.787758 -0.123698,0.351562 -0.358072,0.605468 -0.234375,0.247395 -0.559895,0.384113 -0.319009,0.136719 -0.722654,0.136719 -0.781248,0 -1.171872,-0.436197 -0.384114,-0.442707 -0.384114,-1.269528 v -4.192698 h -1.132809 v 4.39452 q 0,0.768227 0.273436,1.334632 0.279948,0.559895 0.80078,0.865883 0.527342,0.305989 1.269528,0.305989 z m 6.914044,0 q 0.169271,0 0.332031,-0.01953 0.16927,-0.01302 0.273437,-0.02604 v -0.917966 q -0.07162,0.0065 -0.169271,0.01953 -0.09115,0.0065 -0.195312,0.0065 -0.455728,0 -0.690102,-0.188802 -0.234375,-0.195312 -0.234375,-0.735675 v -4.101552 h 1.28906 v -0.937498 h -1.28906 v -1.829422 h -1.171872 v 1.829422 h -0.98958 v 0.937498 h 0.98958 v 4.108062 q 0,0.97005 0.462239,1.412757 0.462238,0.442707 1.393225,0.442707 z m 4.427072,0 q 0.937498,0 1.640621,-0.429686 0.703124,-0.429687 1.093748,-1.217445 0.397134,-0.787758 0.397134,-1.868485 v -0.01302 q 0,-1.080726 -0.397134,-1.861974 -0.390624,-0.787759 -1.100258,-1.210935 -0.703123,-0.429686 -1.640621,-0.429686 -0.930987,0 -1.640621,0.429686 -0.703123,0.423176 -1.100257,1.210935 -0.390624,0.781248 -0.390624,1.861974 v 0.01302 q 0,1.074216 0.390624,1.868485 0.397134,0.787758 1.100257,1.217445 0.709634,0.429686 1.647131,0.429686 z m 0.0065,-1.002601 q -0.598957,0 -1.048175,-0.292968 -0.442707,-0.299479 -0.690102,-0.859373 -0.247395,-0.566405 -0.247395,-1.360674 v -0.01302 q 0,-0.794269 0.247395,-1.347653 0.247395,-0.559894 0.690102,-0.852862 0.449218,-0.299478 1.035154,-0.299478 0.598957,0 1.041664,0.292968 0.449218,0.292968 0.690102,0.852862 0.247396,0.559894 0.247396,1.354163 v 0.01302 q 0,0.794269 -0.247396,1.360674 -0.240884,0.559894 -0.683592,0.859373 -0.436196,0.292968 -1.035153,0.292968 z m 4.264312,0.872393 h 1.13281 V 83.48986 q 0,-0.514321 0.17578,-0.878904 0.182292,-0.371093 0.507812,-0.566405 0.33203,-0.195312 0.768227,-0.195312 0.208333,0 0.371093,0.01953 0.16927,0.01953 0.234374,0.04557 v -1.100257 q -0.0651,-0.01302 -0.188801,-0.02604 -0.117188,-0.01953 -0.266927,-0.01953 -0.572915,0 -0.989581,0.345051 -0.416665,0.345051 -0.585936,0.930987 h -0.02604 v -1.14583 h -1.13281 z m 4.179677,0 h 1.13281 v -6.770816 h -1.13281 z m 0.566405,-7.916646 q 0.299478,0 0.501301,-0.208333 0.208333,-0.208333 0.208333,-0.501301 0,-0.299479 -0.208333,-0.501301 -0.201823,-0.208333 -0.501301,-0.208333 -0.292968,0 -0.501301,0.208333 -0.208333,0.201822 -0.208333,0.501301 0,0.292968 0.208333,0.501301 0.208333,0.208333 0.501301,0.208333 z m 4.088531,8.046854 q 0.455728,0 0.859373,-0.149739 0.410155,-0.15625 0.735675,-0.429686 0.32552,-0.279948 0.520832,-0.65104 h 0.02604 v 1.100257 h 1.13281 v -4.680978 q 0,-0.677081 -0.31901,-1.171872 -0.31901,-0.5013 -0.904946,-0.774737 -0.579425,-0.273437 -1.380204,-0.273437 -0.794269,0 -1.373695,0.273437 -0.579426,0.266926 -0.911456,0.722654 -0.32552,0.455728 -0.377603,1.015623 l -0.0065,0.07161 h 1.093748 l 0.01302,-0.05859 q 0.09766,-0.455728 0.494791,-0.735675 0.403645,-0.286457 1.054685,-0.286457 0.709633,0 1.093747,0.358072 0.390624,0.351561 0.390624,0.970049 v 1.998693 q 0,0.48828 -0.253906,0.878904 -0.247395,0.390624 -0.677081,0.618488 -0.423176,0.221354 -0.957029,0.221354 -0.611978,0 -0.983071,-0.286458 -0.364582,-0.286457 -0.364582,-0.774737 v -0.01302 q 0,-0.475259 0.371093,-0.761717 0.377603,-0.286458 1.054685,-0.32552 l 2.376296,-0.143229 v -0.878904 l -2.506504,0.143229 q -0.774738,0.04557 -1.328122,0.292968 -0.546874,0.247395 -0.839842,0.670571 -0.286457,0.423176 -0.286457,1.002602 v 0.01302 q 0,0.611977 0.279947,1.074216 0.286458,0.462238 0.794269,0.716144 0.507811,0.253905 1.178382,0.253905 z m 4.772122,-0.130208 h 1.13281 V 78.27503 h -1.13281 z"
         id="path49" />
    </g>
  </g>
  <defs
     id="defs47">
    <linearGradient
       id="paint0_linear_2502_4016"
       x1="79"
       y1="0"
       x2="79"
       y2="43"
       gradientUnits="userSpaceOnUse">
      <stop
         stop-color="#FFD703"
         id="stop45" />
      <stop
         offset="1"
         stop-color="#FABD03"
         id="stop46" />
    </linearGradient>
    <clipPath
       id="clip0_2502_4016">
      <rect
         width="158"
         height="158"
         rx="22"
         fill="white"
         id="rect46" />
    </clipPath>
    <clipPath
       id="clip1_2502_4016">
      <rect
         width="158"
         height="2"
         fill="white"
         transform="translate(0 46)"
         id="rect47" />
    </clipPath>
  </defs>
</svg>
