<?xml version="1.0" encoding="UTF-8" standalone="no"?>
<svg
   id="Layer_1"
   style="enable-background:new 0 0 100 100;"
   version="1.1"
   viewBox="0 0 100 100"
   xml:space="preserve"
   sodipodi:docname="photos.svg"
   inkscape:version="1.3.2 (091e20e, 2023-11-25, custom)"
   xmlns:inkscape="http://www.inkscape.org/namespaces/inkscape"
   xmlns:sodipodi="http://sodipodi.sourceforge.net/DTD/sodipodi-0.dtd"
   xmlns="http://www.w3.org/2000/svg"
   xmlns:svg="http://www.w3.org/2000/svg"><defs
     id="defs32" /><sodipodi:namedview
     id="namedview32"
     pagecolor="#ffffff"
     bordercolor="#000000"
     borderopacity="0.25"
     inkscape:showpageshadow="2"
     inkscape:pageopacity="0.0"
     inkscape:pagecheckerboard="0"
     inkscape:deskcolor="#d1d1d1"
     inkscape:zoom="7.73"
     inkscape:cx="50"
     inkscape:cy="50"
     inkscape:window-width="1920"
     inkscape:window-height="1057"
     inkscape:window-x="-8"
     inkscape:window-y="-8"
     inkscape:window-maximized="1"
     inkscape:current-layer="Layer_1" /><style
     type="text/css"
     id="style1">
	.st0{fill:#FFFFFF;}
	.st1{fill:#FF7E7B;}
	.st2{fill:#FF6F3F;}
	.st3{fill:#FFAC00;}
	.st4{fill:#FFC300;}
	.st5{fill:#FF3400;}
	.st6{fill:#F0EA0D;}
	.st7{fill:#DAE411;}
	.st8{fill:#EAA200;}
	.st9{fill:#E63300;}
	.st10{fill:#83D567;}
	.st11{fill:#A2DD50;}
	.st12{fill:#8BC100;}
	.st13{fill:#8D8800;}
	.st14{fill:#44C899;}
	.st15{fill:#4EBFBD;}
	.st16{fill:#00A33F;}
	.st17{fill:#008D08;}
	.st18{fill:#859ED5;}
	.st19{fill:#6EACDF;}
	.st20{fill:#1D7B97;}
	.st21{fill:#00683A;}
	.st22{fill:#BE85C1;}
	.st23{fill:#AB86C4;}
	.st24{fill:#5D53A6;}
	.st25{fill:#243F76;}
	.st26{fill:#F1648A;}
	.st27{fill:#E275A8;}
	.st28{fill:#E40017;}
	.st29{fill:#E60000;}
	.st30{fill:#9F3174;}
	.st31{fill:#9F0017;}
	.st32{fill:#561E5D;}
</style><g
     id="g32"
     transform="matrix(1.1111111,0,0,1.1111111,-5.5555555,-5.5555555)"><g
       id="Symbols_12_"><g
         id="Graphics-_x2F_-App-Icons-_x2F_-Photos_2_"><g
           id="Photos-Icon_2_"><g
             id="Mask_1_"><path
               class="st0"
               d="m 63.6,5 c 9,0 13.6,0 18.4,1.5 5.3,1.9 9.5,6.1 11.4,11.4 1.6,4.9 1.6,9.4 1.6,18.5 v 27.2 c 0,9 0,13.6 -1.5,18.4 -1.9,5.3 -6.1,9.5 -11.4,11.4 C 77.2,95 72.7,95 63.6,95 H 36.4 C 27.4,95 22.8,95 18,93.5 12.7,91.5 8.5,87.3 6.5,82 5,77.2 5,72.7 5,63.6 V 36.4 C 5,27.4 5,22.8 6.5,18 8.5,12.7 12.7,8.5 18,6.5 22.8,5 27.3,5 36.4,5 Z"
               id="path-1_29_" /></g></g><path
           class="st1"
           d="m 35.8,38 c 0.9,0 1.7,0.1 2.5,0.3 C 38.1,37.5 38,36.6 38,35.8 V 23 c 0,-0.6 0.1,-1.1 0.1,-1.6 C 33.4,17.9 26.7,18.3 22.5,22.5 18.3,26.7 17.9,33.4 21.4,38.1 21.9,38 22.5,38 23,38 Z"
           id="path1" /><path
           class="st2"
           d="m 49.2,47.7 c -0.6,0 -1.1,-0.1 -1.7,-0.2 0.1,0.5 0.2,1.1 0.2,1.7 0.3,-0.2 0.5,-0.4 0.8,-0.7 0.2,-0.3 0.4,-0.5 0.7,-0.8 z"
           id="path2" /><path
           class="st3"
           d="m 48.5,31.5 c 0.6,0.6 1.2,1.3 1.6,2 0.5,-0.7 1,-1.4 1.6,-2 l 9,-9 c 0.4,-0.4 0.7,-0.7 1.1,-1 C 61.2,15.6 56.1,11 50,11 c -6.1,0 -11.1,4.5 -11.9,10.4 0.5,0.3 0.9,0.7 1.3,1.1 z"
           id="path3" /><path
           class="st4"
           d="m 51,47.7 c -0.3,-0.4 -0.7,-0.8 -0.9,-1.3 -0.3,0.4 -0.6,0.9 -0.9,1.3 0.3,0 0.6,0 0.8,0 0.3,0.1 0.7,0 1,0 z"
           id="path4" /><path
           class="st5"
           d="m 38,35.8 c 0,0.9 0.1,1.7 0.3,2.5 4.6,1 8.2,4.6 9.2,9.2 0.5,0.1 1.1,0.2 1.7,0.2 0.3,-0.4 0.7,-0.8 0.9,-1.3 -2.5,-3.9 -2.5,-9 0,-12.9 -0.5,-0.7 -1,-1.4 -1.6,-2 l -9,-9 C 39.1,22.1 38.6,21.7 38.2,21.4 38.1,21.9 38,22.4 38,23 Z"
           id="path5" /><path
           class="st6"
           d="m 62,35.8 c 0,0.9 -0.1,1.7 -0.3,2.5 0.8,-0.2 1.7,-0.3 2.5,-0.3 H 77 c 0.6,0 1.2,0.1 1.8,0.2 C 82.3,33.5 82,26.8 77.7,22.5 73.4,18.2 66.6,17.9 61.9,21.5 62,22 62,22.5 62,23 Z"
           id="path6" /><path
           class="st7"
           d="m 52.3,49 c 0,-0.5 0.1,-1 0.2,-1.5 -0.5,0.1 -1,0.2 -1.5,0.2 0.2,0.3 0.5,0.5 0.7,0.8 0.2,0.2 0.4,0.3 0.6,0.5 z"
           id="path7" /><path
           class="st8"
           d="m 51.7,31.5 c -0.6,0.6 -1.2,1.3 -1.6,2 2.5,3.9 2.5,9 0,12.9 0.3,0.4 0.6,0.9 0.9,1.3 0.5,0 1,-0.1 1.5,-0.2 1,-4.6 4.6,-8.2 9.2,-9.2 0.2,-0.8 0.3,-1.7 0.3,-2.5 V 23 c 0,-0.5 0,-1 -0.1,-1.5 -0.4,0.3 -0.8,0.6 -1.1,1 z"
           id="path8" /><path
           class="st9"
           d="m 50.1,33.5 c -2.5,3.9 -2.5,9 0,12.9 2.5,-3.9 2.5,-8.9 0,-12.9 z"
           id="path9" /><path
           class="st10"
           d="m 52.2,50 c 0,0.4 0,0.8 0.1,1.2 0.5,-0.4 1,-0.8 1.5,-1.1 -0.5,-0.3 -1,-0.7 -1.5,-1.1 0,0.3 -0.1,0.7 -0.1,1 z"
           id="path10" /><path
           class="st11"
           d="m 89,50 c 0,-6 -4.4,-11 -10.2,-11.8 -0.3,0.5 -0.7,0.9 -1.1,1.3 l -9,9 c -0.6,0.6 -1.3,1.2 -2,1.6 0.7,0.5 1.4,1 2,1.6 l 9,9 c 0.4,0.4 0.7,0.7 1,1.1 C 84.5,61 89,56.1 89,50 Z"
           id="path11" /><path
           class="st12"
           d="m 64.2,38 c -0.9,0 -1.7,0.1 -2.5,0.3 -1,4.6 -4.6,8.2 -9.2,9.2 -0.1,0.5 -0.2,1 -0.2,1.5 0.5,0.4 1,0.8 1.5,1.1 3.9,-2.5 9,-2.5 12.9,0 0.7,-0.5 1.4,-1 2,-1.6 l 9,-9 c 0.4,-0.4 0.8,-0.9 1.1,-1.3 C 78.2,38.1 77.6,38 77,38 Z"
           id="path12" /><path
           class="st13"
           d="m 61.7,38.3 c -4.6,1 -8.2,4.6 -9.2,9.2 4.6,-1 8.2,-4.6 9.2,-9.2 z"
           id="path13" /><path
           class="st14"
           d="m 64.2,62 c -0.9,0 -1.7,-0.1 -2.5,-0.3 0.2,0.8 0.3,1.7 0.3,2.5 V 77 c 0,0.6 -0.1,1.1 -0.1,1.7 4.7,3.7 11.5,3.4 15.9,-1 4.3,-4.3 4.7,-11.1 1,-15.9 C 78.1,61.9 77.6,62 77,62 Z"
           id="path14" /><path
           class="st15"
           d="m 51.2,52.3 c 0.4,0 0.9,0.1 1.3,0.2 -0.1,-0.4 -0.2,-0.9 -0.2,-1.3 -0.2,0.2 -0.4,0.3 -0.6,0.5 -0.2,0.2 -0.3,0.4 -0.5,0.6 z"
           id="path15" /><path
           class="st16"
           d="m 68.7,51.7 c -0.6,-0.6 -1.3,-1.2 -2,-1.6 -3.9,2.5 -9,2.5 -12.9,0 -0.5,0.3 -1,0.7 -1.5,1.1 0,0.4 0.1,0.9 0.2,1.3 4.6,1 8.2,4.6 9.2,9.2 0.8,0.2 1.7,0.3 2.5,0.3 H 77 c 0.6,0 1.1,-0.1 1.7,-0.1 -0.3,-0.4 -0.6,-0.8 -1,-1.1 z"
           id="path16" /><path
           class="st17"
           d="m 53.8,50.1 c 3.9,2.5 9,2.5 12.9,0 -4,-2.5 -9,-2.5 -12.9,0 z"
           id="path17" /><path
           class="st18"
           d="m 49,52.3 c 0.4,0.5 0.8,1 1.1,1.5 0.3,-0.5 0.7,-1 1.1,-1.5 -0.4,0 -0.8,-0.1 -1.2,-0.1 -0.3,0 -0.7,0.1 -1,0.1 z"
           id="path18" /><path
           class="st19"
           d="m 51.7,68.7 c -0.6,-0.6 -1.2,-1.3 -1.6,-2 -0.5,0.7 -1,1.4 -1.6,2 l -9,9 c -0.4,0.4 -0.9,0.8 -1.3,1.1 C 39,84.6 44,89 50,89 c 6.1,0 11,-4.5 11.9,-10.3 -0.4,-0.3 -0.8,-0.6 -1.1,-1 z"
           id="path19" /><path
           class="st20"
           d="m 62,64.2 c 0,-0.9 -0.1,-1.7 -0.3,-2.5 -4.6,-1 -8.2,-4.6 -9.2,-9.2 -0.4,-0.1 -0.9,-0.2 -1.3,-0.2 -0.4,0.5 -0.8,1 -1.1,1.5 2.5,3.9 2.5,9 0,12.9 0.5,0.7 1,1.4 1.6,2 l 9,9 c 0.4,0.4 0.7,0.7 1.1,1 0.1,-0.6 0.1,-1.1 0.1,-1.7 V 64.2 Z"
           id="path20" /><path
           class="st21"
           d="m 61.7,61.7 c -1,-4.6 -4.6,-8.2 -9.2,-9.2 1,4.6 4.6,8.2 9.2,9.2 z"
           id="path21" /><path
           class="st22"
           d="m 47.7,51 c 0,0.5 -0.1,1 -0.2,1.5 0.5,-0.1 1,-0.2 1.5,-0.2 C 48.8,52.1 48.7,51.9 48.5,51.7 48.2,51.5 48,51.3 47.7,51 Z"
           id="path22" /><path
           class="st23"
           d="m 38,64.2 c 0,-0.9 0.1,-1.7 0.3,-2.5 -0.8,0.2 -1.7,0.3 -2.5,0.3 H 23 c -0.5,0 -1,0 -1.5,-0.1 -3.7,4.7 -3.3,11.5 1,15.8 4.3,4.3 11,4.6 15.7,1.1 C 38.1,78.2 38,77.6 38,77 Z"
           id="path23" /><path
           class="st24"
           d="m 48.5,68.7 c 0.6,-0.6 1.2,-1.3 1.6,-2 -2.5,-3.9 -2.5,-9 0,-12.9 -0.3,-0.5 -0.7,-1 -1.1,-1.5 -0.5,0 -1,0.1 -1.5,0.2 -1,4.6 -4.6,8.2 -9.2,9.2 -0.2,0.8 -0.3,1.7 -0.3,2.5 V 77 c 0,0.6 0.1,1.2 0.2,1.8 0.5,-0.3 0.9,-0.7 1.3,-1.1 z"
           id="path24" /><path
           class="st25"
           d="m 50.1,66.7 c 2.5,-3.9 2.5,-9 0,-12.9 -2.5,3.9 -2.5,8.9 0,12.9 z"
           id="path25" /><path
           class="st26"
           d="m 47.7,49.2 c -0.4,0.3 -0.8,0.7 -1.3,0.9 0.4,0.3 0.9,0.6 1.3,0.9 0,-0.3 0.1,-0.7 0.1,-1 0,-0.3 -0.1,-0.6 -0.1,-0.8 z"
           id="path26" /><path
           class="st27"
           d="m 31.5,51.7 c 0.6,-0.6 1.3,-1.2 2,-1.6 -0.7,-0.5 -1.4,-1 -2,-1.6 l -9,-9 C 22.1,39.1 21.7,38.6 21.4,38.2 15.5,38.9 11,43.9 11,50 c 0,6.1 4.6,11.2 10.5,11.9 0.3,-0.4 0.6,-0.8 1,-1.1 z"
           id="path27" /><path
           class="st28"
           d="m 31.5,48.5 c 0.6,0.6 1.3,1.2 2,1.6 3.9,-2.5 9,-2.5 12.9,0 0.4,-0.3 0.9,-0.6 1.3,-0.9 0,-0.6 -0.1,-1.1 -0.2,-1.7 -4.6,-1 -8.2,-4.6 -9.2,-9.2 C 37.5,38.1 36.6,38 35.8,38 H 23 c -0.6,0 -1.1,0.1 -1.6,0.1 0.3,0.5 0.7,0.9 1.1,1.3 z"
           id="path28" /><path
           class="st29"
           d="m 38.3,38.3 c 1,4.6 4.6,8.2 9.2,9.2 -1,-4.6 -4.6,-8.2 -9.2,-9.2 z"
           id="path29" /><path
           class="st30"
           d="m 35.8,62 c 0.9,0 1.7,-0.1 2.5,-0.3 1,-4.6 4.6,-8.2 9.2,-9.2 0.1,-0.5 0.2,-1 0.2,-1.5 -0.4,-0.3 -0.8,-0.7 -1.3,-0.9 -3.9,2.5 -9,2.5 -12.9,0 -0.7,0.5 -1.4,1 -2,1.6 l -9,9 c -0.4,0.4 -0.7,0.7 -1,1.1 0.5,0.2 1,0.2 1.5,0.2 z"
           id="path30" /><path
           class="st31"
           d="m 33.5,50.1 c 3.9,2.5 9,2.5 12.9,0 -3.9,-2.5 -8.9,-2.5 -12.9,0 z"
           id="path31" /><path
           class="st32"
           d="m 38.3,61.7 c 4.6,-1 8.2,-4.6 9.2,-9.2 -4.6,1 -8.2,4.6 -9.2,9.2 z"
           id="path32" /></g></g></g></svg>
