<?xml version="1.0" encoding="UTF-8" standalone="no"?>
<svg
   width="158"
   height="158"
   viewBox="0 0 158 158"
   fill="none"
   version="1.1"
   id="svg8"
   sodipodi:docname="weather_widget.svg"
   inkscape:version="1.3.2 (091e20e, 2023-11-25, custom)"
   xmlns:inkscape="http://www.inkscape.org/namespaces/inkscape"
   xmlns:sodipodi="http://sodipodi.sourceforge.net/DTD/sodipodi-0.dtd"
   xmlns="http://www.w3.org/2000/svg"
   xmlns:svg="http://www.w3.org/2000/svg">
  <sodipodi:namedview
     id="namedview8"
     pagecolor="#ffffff"
     bordercolor="#000000"
     borderopacity="0.25"
     inkscape:showpageshadow="2"
     inkscape:pageopacity="0.0"
     inkscape:pagecheckerboard="0"
     inkscape:deskcolor="#d1d1d1"
     inkscape:zoom="3.1887418"
     inkscape:cx="74.167184"
     inkscape:cy="117.13084"
     inkscape:window-width="1920"
     inkscape:window-height="1057"
     inkscape:window-x="-8"
     inkscape:window-y="-8"
     inkscape:window-maximized="1"
     inkscape:current-layer="svg8" />
  <rect
     width="158"
     height="158"
     rx="22"
     fill="url(#paint0_linear_254_15535)"
     id="rect1"
     x="0"
     y="0"
     style="fill:url(#paint0_linear_254_15535)" />
  <path
     d="m 64.399419,21.868231 3.364599,0.0136 c 0.0678,0 0.0904,0.0272 0.0904,0.0953 l 0.0091,3.355 c 0,0.7809 0.9723,0.9579 1.316,0.2043 l 3.4233,-7.4363 c 0.3663,-0.7945 -0.2487,-1.3212 -1.0039,-0.9716 l -7.443699,3.4458 c -0.6919,0.3178 -0.5471,1.2893 0.2442,1.2939 z"
     fill="#ffffff"
     id="path3" />
  <path
     d="M 26.2769,91.7755 C 26.2769,91.3573 25.9189,91 25.5,91 c -0.4189,0 -0.7693,0.3573 -0.7693,0.7755 v 1.5434 c 0,0.4181 0.3504,0.7679 0.7693,0.7679 0.4189,0 0.7769,-0.3498 0.7769,-0.7679 z m 3.0466,2.8283 c -0.2971,0.2965 -0.2971,0.7907 0.0076,1.0872 0.2894,0.2965 0.7921,0.2965 1.0892,-0.0076 l 1.0967,-1.0948 c 0.2971,-0.289 0.2971,-0.7983 0,-1.0949 -0.297,-0.2889 -0.7921,-0.2889 -1.0891,0.0076 z m -8.7438,1.0796 c 0.2895,0.3041 0.7922,0.3041 1.0892,0.0076 0.2971,-0.2889 0.2971,-0.7983 0.0076,-1.0872 l -1.0968,-1.1025 c -0.2894,-0.2889 -0.7921,-0.2965 -1.0891,-0.0076 -0.2971,0.2966 -0.2971,0.8059 -0.0076,1.0872 z M 25.5,95.4933 c -2.1935,0 -4.0139,1.8095 -4.0139,4.0067 0,2.197 1.8204,4.007 4.0139,4.007 2.1935,0 4.0063,-1.81 4.0063,-4.007 0,-2.1972 -1.8128,-4.0067 -4.0063,-4.0067 z m 7.7307,4.7817 C 33.6496,100.275 34,99.9182 34,99.5 34,99.0818 33.6496,98.7321 33.2307,98.7321 h -1.5461 c -0.4189,0 -0.7693,0.3497 -0.7693,0.7679 0,0.4182 0.3504,0.775 0.7693,0.775 z M 17.7769,98.7321 C 17.3504,98.7321 17,99.0818 17,99.5 c 0,0.4182 0.3504,0.775 0.7769,0.775 h 1.5385 c 0.4189,0 0.7769,-0.3568 0.7769,-0.775 0,-0.4182 -0.358,-0.7679 -0.7769,-0.7679 z m 12.6357,4.5849 c -0.297,-0.297 -0.7921,-0.289 -1.0891,0.007 -0.2971,0.289 -0.2971,0.783 0.0076,1.087 l 1.1044,1.095 c 0.2894,0.297 0.7921,0.289 1.0891,-0.007 0.2895,-0.297 0.2895,-0.791 -0.0076,-1.088 z m -10.9296,1.087 c -0.2971,0.296 -0.3047,0.798 -0.0153,1.087 0.2971,0.297 0.8074,0.304 1.0968,0.015 l 1.1044,-1.095 c 0.2971,-0.296 0.2971,-0.798 0.0076,-1.087 -0.297,-0.296 -0.7997,-0.296 -1.0968,-0.007 z m 6.7939,1.277 c 0,-0.418 -0.358,-0.768 -0.7769,-0.768 -0.4189,0 -0.7693,0.35 -0.7693,0.768 v 1.544 c 0,0.418 0.3504,0.775 0.7693,0.775 0.4189,0 0.7769,-0.357 0.7769,-0.775 z"
     fill="#ffd409"
     id="path5" />
  <path
     d="m 20.2466,124.222 c -2.0694,0 -3.396,-1.047 -3.523,-2.59 l -0.0063,-0.082 h 1.3965 l 0.0063,0.07 c 0.0762,0.831 0.9585,1.364 2.1836,1.364 1.168,0 1.9995,-0.584 1.9995,-1.434 v -0.007 c 0,-0.704 -0.4951,-1.161 -1.7075,-1.421 l -1.0029,-0.216 c -1.8599,-0.394 -2.6597,-1.257 -2.6597,-2.609 v -0.006 c 0.0064,-1.581 1.3774,-2.673 3.3198,-2.673 1.9424,0 3.2119,1.098 3.3135,2.52 l 0.0064,0.089 h -1.3775 l -0.0127,-0.082 c -0.1206,-0.749 -0.8379,-1.295 -1.9487,-1.289 -1.0728,0 -1.8662,0.501 -1.8662,1.365 v 0.006 c 0,0.679 0.4824,1.124 1.6694,1.377 l 0.9966,0.223 c 1.9233,0.412 2.7104,1.187 2.7104,2.545 v 0.006 c 0,1.752 -1.3647,2.844 -3.4975,2.844 z m 7.5093,-0.089 c -1.5552,0 -2.3614,-0.933 -2.3614,-2.564 v -4.463 h 1.3775 v 4.139 c 0,1.143 0.4189,1.708 1.4282,1.708 1.1045,0 1.6948,-0.692 1.6948,-1.803 v -4.044 h 1.3711 V 124 H 29.895 v -1.041 h -0.1079 c -0.3301,0.743 -1.0283,1.174 -2.0312,1.174 z M 33.2529,124 v -6.894 h 1.3775 v 1.048 h 0.1015 c 0.3365,-0.737 0.9966,-1.181 1.9995,-1.181 1.5425,0 2.3931,0.921 2.3931,2.565 V 124 h -1.3711 v -4.139 c 0,-1.142 -0.4761,-1.707 -1.4853,-1.707 -1.0093,0 -1.6377,0.692 -1.6377,1.803 V 124 Z m 7.795,0 v -6.894 h 1.3774 v 1.048 h 0.1016 c 0.3364,-0.737 0.9965,-1.181 1.9995,-1.181 1.5424,0 2.393,0.921 2.393,2.565 V 124 h -1.3711 v -4.139 c 0,-1.142 -0.476,-1.707 -1.4853,-1.707 -1.0093,0 -1.6377,0.692 -1.6377,1.803 V 124 Z m 8.2392,2.425 c -0.1714,0 -0.3745,-0.013 -0.5522,-0.032 v -1.085 c 0.1333,0.019 0.3047,0.025 0.4633,0.025 0.6412,0 1.022,-0.273 1.2315,-0.971 l 0.1015,-0.356 -2.5009,-6.9 h 1.4853 l 1.7266,5.51 h 0.1206 l 1.7202,-5.51 h 1.4473 l -2.5645,7.161 c -0.584,1.65 -1.2822,2.158 -2.6787,2.158 z"
     fill="#ffffff"
     id="path6" />
  <defs
     id="defs8">
    <linearGradient
       id="paint0_linear_254_15535"
       x1="79"
       y1="0"
       x2="79"
       y2="158"
       gradientUnits="userSpaceOnUse">
      <stop
         stop-color="#074A8E"
         id="stop7" />
      <stop
         offset="1"
         stop-color="#5596D8"
         id="stop8" />
    </linearGradient>
  </defs>
  <path
     style="font-weight:600;font-size:13.3333px;font-family:'SF Pro';-inkscape-font-specification:'SF Pro Semi-Bold';fill:#ffffff;stroke-width:19.043;stroke-linecap:round;stroke-linejoin:round"
     d="m 21.23514,26.018524 q 1.087237,0 1.94661,-0.416665 0.865883,-0.416666 1.406246,-1.152341 0.540363,-0.735675 0.657551,-1.705725 l 0.01302,-0.0651 h -1.673172 l -0.01302,0.0651 q -0.149739,0.572915 -0.475259,0.97656 -0.32552,0.403645 -0.794269,0.618488 -0.468749,0.208333 -1.061195,0.208333 -0.8138,0 -1.419268,-0.416666 -0.598957,-0.416665 -0.930987,-1.178382 -0.32552,-0.761717 -0.32552,-1.796871 v -0.0065 q 0,-1.041664 0.32552,-1.79687 0.33203,-0.755207 0.930987,-1.165362 0.598957,-0.416666 1.412757,-0.416666 0.618488,0 1.087237,0.214844 0.468749,0.214843 0.781248,0.605467 0.312499,0.390624 0.442707,0.924477 l 0.03255,0.123697 h 1.673173 l -0.0065,-0.0651 q -0.117188,-0.963539 -0.657551,-1.699214 -0.540363,-0.735675 -1.406246,-1.152341 -0.859373,-0.423176 -1.94661,-0.423176 -1.347653,0 -2.337234,0.592446 -0.98958,0.585936 -1.529944,1.673173 -0.540363,1.080727 -0.540363,2.584629 v 0.0065 q 0,1.503903 0.533853,2.59114 0.540363,1.087237 1.529944,1.679683 0.996091,0.592446 2.343744,0.592446 z m 8.190084,-0.02604 q 1.022133,0 1.770829,-0.429687 0.748696,-0.429686 1.165361,-1.230465 0.416666,-0.80729 0.416666,-1.927079 v -0.01302 q 0,-1.119788 -0.423176,-1.920568 -0.416666,-0.800779 -1.171872,-1.230465 -0.748696,-0.436197 -1.757808,-0.436197 -1.009112,0 -1.764319,0.436197 -0.748696,0.429686 -1.165361,1.236976 -0.416666,0.800779 -0.416666,1.914057 v 0.01302 q 0,1.113279 0.410155,1.920568 0.416666,0.80078 1.165362,1.236976 0.755206,0.429687 1.770829,0.429687 z m 0.0065,-1.328122 q -0.507811,0 -0.885414,-0.260416 -0.377603,-0.266926 -0.585936,-0.774737 -0.208333,-0.507812 -0.208333,-1.223956 v -0.01302 q 0,-0.716144 0.208333,-1.217444 0.208333,-0.507812 0.585936,-0.774738 0.377603,-0.266926 0.878904,-0.266926 0.507811,0 0.885414,0.266926 0.377603,0.266926 0.579426,0.774738 0.208333,0.5013 0.208333,1.217444 v 0.01302 q 0,0.716144 -0.208333,1.223956 -0.201823,0.507811 -0.572915,0.774737 -0.371093,0.260416 -0.885415,0.260416 z m 4.374988,1.191403 h 1.647132 v -3.997385 q 0,-0.507812 0.17578,-0.865884 0.175781,-0.358072 0.507812,-0.540363 0.33203,-0.188801 0.787758,-0.188801 0.208333,0 0.384114,0.02604 0.17578,0.02604 0.279947,0.0651 v -1.484371 q -0.09766,-0.02604 -0.234375,-0.04557 -0.130208,-0.01953 -0.286457,-0.01953 -0.598957,0 -1.015623,0.358072 -0.410155,0.351562 -0.566404,0.97656 h -0.03255 V 18.94823 h -1.647132 z m 4.648427,0 H 40.10228 V 18.94823 h -1.647131 z m 0.826821,-7.890605 q 0.384113,0 0.644529,-0.260416 0.266927,-0.266926 0.266927,-0.631508 0,-0.377604 -0.266927,-0.63802 -0.260416,-0.260416 -0.644529,-0.260416 -0.384114,0 -0.65104,0.260416 -0.266927,0.260416 -0.266927,0.63802 0,0.364582 0.266927,0.631508 0.266926,0.260416 0.65104,0.260416 z m 2.180983,7.890605 h 1.647131 v -4.003896 q 0,-0.49479 0.182292,-0.865883 0.188801,-0.377603 0.527342,-0.585936 0.345051,-0.208333 0.800779,-0.208333 0.690103,0 1.028644,0.397135 0.345051,0.397134 0.345051,1.126299 v 4.140614 h 1.647131 V 21.38963 q 0,-1.204424 -0.624998,-1.894527 -0.624999,-0.690102 -1.757808,-0.690102 -0.787759,0 -1.315101,0.338541 -0.527343,0.33203 -0.80078,0.891925 h -0.03255 V 18.94823 H 41.462953 Z M 51.5085,25.992483 q 0.253906,0 0.462239,-0.01953 0.208333,-0.01953 0.351562,-0.03906 v -1.236976 q -0.08464,0.01302 -0.182292,0.02604 -0.09766,0.0065 -0.214843,0.0065 -0.442707,0 -0.664061,-0.188801 -0.221353,-0.195312 -0.221353,-0.703124 v -3.626293 h 1.282549 V 18.94823 h -1.282549 v -1.744787 h -1.673173 v 1.744787 h -0.97656 v 1.263017 h 0.97656 v 3.769522 q 0,1.067706 0.527342,1.542965 0.527343,0.468749 1.614579,0.468749 z m 1.966143,-0.136719 h 1.64062 V 21.87791 q 0,-0.501301 0.188802,-0.878904 0.188802,-0.377603 0.527342,-0.592447 0.338541,-0.214843 0.787759,-0.214843 0.696613,0 1.074216,0.449218 0.384114,0.442707 0.384114,1.236976 v 3.977854 h 1.64062 V 21.55239 q 0,-0.833331 -0.299478,-1.445309 -0.299478,-0.618488 -0.846352,-0.957029 -0.540363,-0.345051 -1.289059,-0.345051 -0.774738,0 -1.321612,0.345051 -0.540363,0.338541 -0.807289,0.963539 h -0.03906 v -3.652334 h -1.64062 z"
     id="text1"
     aria-label="Corinth" />
  <path
     style="font-size:48px;font-family:'SF Pro Display';-inkscape-font-specification:'SF Pro Display';fill:#ffffff;stroke-width:19.043;stroke-linecap:round;stroke-linejoin:round"
     d="m 30.175262,70.505402 c 6.773438,0 11.742188,-4.171875 11.742188,-9.820313 v -0.04687 c 0,-4.804687 -3.351563,-7.875 -8.273438,-8.296875 v -0.09375 c 4.21875,-0.890625 7.171875,-3.75 7.171875,-7.921875 v -0.04687 c 0,-5.132812 -4.242187,-8.71875 -10.6875,-8.71875 -6.328125,0 -10.6875,3.679688 -11.226562,9.1875 l -0.02344,0.234375 h 4.054688 l 0.02344,-0.234375 c 0.351563,-3.421875 3.1875,-5.53125 7.171875,-5.53125 4.125,0 6.445313,2.039063 6.445313,5.578125 v 0.04687 c 0,3.375 -2.8125,5.859375 -6.84375,5.859375 h -4.054688 v 3.5625 h 4.242188 c 4.734375,0 7.710937,2.320313 7.710937,6.46875 v 0.04687 c 0,3.585938 -3.023437,6.070313 -7.453125,6.070313 -4.5,0 -7.546875,-2.296875 -7.898437,-5.625 l -0.02344,-0.234375 H 18.1987 l 0.02344,0.28125 c 0.445313,5.34375 4.96875,9.234375 11.953125,9.234375 z m 17.015625,-0.5625 h 22.3125 v -3.75 H 52.97995 v -0.09375 l 8.039062,-8.25 c 6.210938,-6.351563 7.921875,-9.140625 7.921875,-12.84375 v -0.04687 c 0,-5.296875 -4.476562,-9.398438 -10.59375,-9.398438 -6.304687,0 -11.367187,4.335938 -11.367187,10.195313 v 0.140625 h 4.078125 v -0.117188 c 0,-3.632812 3.140625,-6.539062 7.359375,-6.539062 3.679687,0 6.28125,2.484375 6.304687,5.929687 v 0.04687 c 0,2.8125 -1.054687,4.640625 -5.625,9.398438 l -11.90625,12.421875 z m 34.03125,-19.03125 c 3.984375,0 7.03125,-3.046875 7.03125,-7.03125 v -0.02344 c 0,-3.984375 -3.070312,-7.007812 -7.03125,-7.007812 -4.007812,0 -7.007812,3.023437 -7.03125,7.007812 v 0.02344 c 0,3.984375 3,7.03125 7.03125,7.03125 z m 0,-3.398438 c -1.945312,0 -3.515625,-1.523437 -3.515625,-3.609375 v -0.02344 c 0,-2.15625 1.59375,-3.632813 3.515625,-3.632813 2.015625,0 3.515625,1.476563 3.515625,3.632813 v 0.02344 c 0,2.085938 -1.476562,3.609375 -3.515625,3.609375 z"
     id="text2"
     aria-label="32°" />
  <path
     d="m 16.966605,142.0345 h 1.171872 v -4.27733 h 5.156237 v 4.27733 h 1.171872 v -9.39451 h -1.171872 v 4.06249 h -5.156237 v -4.06249 h -1.171872 z m 9.843725,-4.9479 c 0.416666,0 0.742186,-0.32552 0.742186,-0.74219 0,-0.41667 -0.32552,-0.74219 -0.742186,-0.74219 -0.416665,0 -0.742185,0.32552 -0.742185,0.74219 0,0.41667 0.32552,0.74219 0.742185,0.74219 z m 0,5.03905 c 0.416666,0 0.742186,-0.32552 0.742186,-0.74219 0,-0.41667 -0.32552,-0.74219 -0.742186,-0.74219 -0.416665,0 -0.742185,0.32552 -0.742185,0.74219 0,0.41667 0.32552,0.74219 0.742185,0.74219 z m 8.092427,0.0651 c 1.881506,0 3.261711,-1.15885 3.261711,-2.72786 v -0.013 c 0,-1.33463 -0.930987,-2.18749 -2.298172,-2.30468 v -0.026 c 1.171873,-0.2474 1.992183,-1.04167 1.992183,-2.20052 v -0.013 c 0,-1.42578 -1.178382,-2.42187 -2.968743,-2.42187 -1.757808,0 -2.968742,1.02214 -3.118481,2.55208 l -0.0065,0.0651 h 1.1263 l 0.0065,-0.0651 c 0.09766,-0.95052 0.885414,-1.53645 1.992182,-1.53645 1.145831,0 1.790361,0.5664 1.790361,1.54947 v 0.013 c 0,0.9375 -0.781249,1.6276 -1.901037,1.6276 h -1.1263 v 0.98958 h 1.178383 c 1.315101,0 2.141922,0.64453 2.141922,1.79687 v 0.013 c 0,0.99609 -0.839842,1.6862 -2.070308,1.6862 -1.249997,0 -2.096349,-0.63802 -2.194005,-1.5625 l -0.0065,-0.0651 h -1.126299 l 0.0065,0.0781 c 0.123698,1.48437 1.380205,2.5651 3.320304,2.5651 z m 7.890606,0 c 1.881506,0 3.261711,-1.15885 3.261711,-2.72786 v -0.013 c 0,-1.33463 -0.930988,-2.18749 -2.298172,-2.30468 v -0.026 c 1.171872,-0.2474 1.992183,-1.04167 1.992183,-2.20052 v -0.013 c 0,-1.42578 -1.178383,-2.42187 -2.968743,-2.42187 -1.757808,0 -2.968742,1.02214 -3.118481,2.55208 l -0.0065,0.0651 h 1.1263 l 0.0065,-0.0651 c 0.09766,-0.95052 0.885414,-1.53645 1.992182,-1.53645 1.145831,0 1.79036,0.5664 1.79036,1.54947 v 0.013 c 0,0.9375 -0.781248,1.6276 -1.901036,1.6276 h -1.1263 v 0.98958 h 1.178383 c 1.315101,0 2.141921,0.64453 2.141921,1.79687 v 0.013 c 0,0.99609 -0.839841,1.6862 -2.070307,1.6862 -1.249997,0 -2.096349,-0.63802 -2.194005,-1.5625 l -0.0065,-0.0651 h -1.126299 l 0.0065,0.0781 c 0.123698,1.48437 1.380205,2.5651 3.320304,2.5651 z m 6.634097,-5.44269 c 1.106768,0 1.95312,-0.84636 1.95312,-1.95312 v -0.007 c 0,-1.10676 -0.852862,-1.9466 -1.95312,-1.9466 -1.113278,0 -1.94661,0.83984 -1.95312,1.9466 v 0.007 c 0,1.10676 0.833331,1.95312 1.95312,1.95312 z m 0,-0.94401 c -0.540363,0 -0.97656,-0.42318 -0.97656,-1.0026 v -0.007 c 0,-0.59896 0.442707,-1.00912 0.97656,-1.00912 0.559894,0 0.97656,0.41016 0.97656,1.00912 v 0.007 c 0,0.57942 -0.410155,1.0026 -0.97656,1.0026 z m 6.315089,6.23045 h 5.70311 v -1.05468 h -4.531238 v -8.33983 h -1.171872 z m 7.513,-4.9479 c 0.416666,0 0.742186,-0.32552 0.742186,-0.74219 0,-0.41667 -0.32552,-0.74219 -0.742186,-0.74219 -0.416665,0 -0.742185,0.32552 -0.742185,0.74219 0,0.41667 0.32552,0.74219 0.742185,0.74219 z m 0,5.03905 c 0.416666,0 0.742186,-0.32552 0.742186,-0.74219 0,-0.41667 -0.32552,-0.74219 -0.742186,-0.74219 -0.416665,0 -0.742185,0.32552 -0.742185,0.74219 0,0.41667 0.32552,0.74219 0.742185,0.74219 z m 4.928375,-0.0911 h 6.197901 v -1.04166 h -4.589832 v -0.026 l 2.233067,-2.29166 c 1.725256,-1.76431 2.200515,-2.53905 2.200515,-3.5677 v -0.013 c 0,-1.47135 -1.243486,-2.61067 -2.942701,-2.61067 -1.751297,0 -3.157544,1.20443 -3.157544,2.83203 v 0.0391 h 1.13281 v -0.0325 c 0,-1.00911 0.872393,-1.8164 2.044265,-1.8164 1.022133,0 1.744788,0.6901 1.751298,1.64713 v 0.013 c 0,0.78125 -0.292968,1.28906 -1.562496,2.61067 l -3.307283,3.45051 z m 10.709609,0.15625 c 1.881506,0 3.261711,-1.15885 3.261711,-2.72786 v -0.013 c 0,-1.33463 -0.930987,-2.18749 -2.298171,-2.30468 v -0.026 c 1.171872,-0.2474 1.992182,-1.04167 1.992182,-2.20052 v -0.013 c 0,-1.42578 -1.178382,-2.42187 -2.968742,-2.42187 -1.757809,0 -2.968743,1.02214 -3.118482,2.55208 l -0.0065,0.0651 h 1.1263 l 0.0065,-0.0651 c 0.09766,-0.95052 0.885414,-1.53645 1.992183,-1.53645 1.14583,0 1.79036,0.5664 1.79036,1.54947 v 0.013 c 0,0.9375 -0.781248,1.6276 -1.901037,1.6276 h -1.1263 v 0.98958 h 1.178383 c 1.315101,0 2.141922,0.64453 2.141922,1.79687 v 0.013 c 0,0.99609 -0.839842,1.6862 -2.070308,1.6862 -1.249997,0 -2.096349,-0.63802 -2.194005,-1.5625 l -0.0065,-0.0651 h -1.126299 l 0.0065,0.0781 c 0.123698,1.48437 1.380205,2.5651 3.320304,2.5651 z m 6.634095,-5.44269 c 1.106768,0 1.95312,-0.84636 1.95312,-1.95312 v -0.007 c 0,-1.10676 -0.852862,-1.9466 -1.95312,-1.9466 -1.113278,0 -1.946609,0.83984 -1.95312,1.9466 v 0.007 c 0,1.10676 0.833331,1.95312 1.95312,1.95312 z m 0,-0.94401 c -0.540363,0 -0.97656,-0.42318 -0.97656,-1.0026 v -0.007 c 0,-0.59896 0.442707,-1.00912 0.97656,-1.00912 0.559895,0 0.97656,0.41016 0.97656,1.00912 v 0.007 c 0,0.57942 -0.410155,1.0026 -0.97656,1.0026 z"
     id="text3"
     style="font-size:13.3333px;font-family:'SF Pro Display';-inkscape-font-specification:'SF Pro Display';fill:#ffffff;stroke-width:19.043;stroke-linecap:round;stroke-linejoin:round"
     aria-label="H: 33° L: 23°" />
</svg>
