<?xml version="1.0" encoding="UTF-8" standalone="no"?>
<svg version="1.1" xml:space="preserve" viewBox="0 0 264.58301 264.58301"
   xmlns:xlink="http://www.w3.org/1999/xlink" xmlns="http://www.w3.org/2000/svg"
   xmlns:svg="http://www.w3.org/2000/svg"><defs><linearGradient id="b"><stop offset="0" stop-color="#303030"/><stop offset="1" stop-color="#141414"/></linearGradient><linearGradient id="a"><stop offset="0" stop-color="#cbc9be"/><stop offset="1" stop-color="#c8c5bb" stop-opacity="0"/></linearGradient><linearGradient xlink:href="#a" id="h" x1="-53.582775" y1="120.72184" x2="-53.582775" y2="114.41766" gradientUnits="userSpaceOnUse" gradientTransform="matrix(.99999877 0 0 .99999876 86.655588 11.44839)"/><linearGradient xlink:href="#a" id="i" gradientUnits="userSpaceOnUse" x1="-53.582775" y1="120.72184" x2="-53.582775" y2="114.41766" gradientTransform="matrix(.99999877 0 0 .99999876 276.83082 11.44839)"/><linearGradient xlink:href="#b" id="c" x1="132.2915" y1="0" x2="132.2915" y2="264.58301" gradientUnits="userSpaceOnUse"/><clipPath clipPathUnits="userSpaceOnUse" id="d"><path d="M-31.594972 54.69743c-10.576039 0-13.725777 6.338221-13.725777 14.211535V85.50908c0-7.873315 3.149738-14.211536 13.725777-14.211536H122.86692c10.57602 0 13.72577 6.338221 13.72577 14.211536V68.908965c0-7.873314-3.14975-14.211535-13.72577-14.211535Z" fill="#4095ca" stroke-width="18" stroke-linecap="square" stroke-opacity=".607477"/></clipPath><clipPath clipPathUnits="userSpaceOnUse" id="f"><path d="M83.818361 394.03231c-39.972431 0-51.876954 23.95549-51.876954 53.71292v7.60641l176.408203.32617c47.12943.0873 66.42745 19.0478 86.06641 45.57812 5.00155 6.75662 11.08589 15.9143 17.02733 21.86135 17.74131 17.75789 41.00574 26.62878 64.27148 26.62889 23.26576.00011 46.53019-8.87097 64.2715-26.62889 5.94144-5.94701 12.02578-15.10473 17.02735-21.86135 19.63895-26.53032 38.93696-45.49096 86.0664-45.57812l176.40819-.32617v-7.60641c0-29.75743-11.90453-53.71292-51.87692-53.71292Z" fill="#f16d5e" stroke-width="18" stroke-linecap="square" stroke-opacity=".607477"/></clipPath><filter id="e" x="-.04700889" width="1.0940178" y="-.27754272" height="1.5550854" color-interpolation-filters="sRGB"><feGaussianBlur stdDeviation="3.5631452"/></filter><filter id="g" x="-.05357662" width="1.1071532" y="-.07135274" height="1.1427055" color-interpolation-filters="sRGB"><feGaussianBlur stdDeviation="16.742692"/></filter></defs><path d="M264.58298 181.81563c0 3.16361 0 6.32151-.02385 9.47938-.01568 2.66322-.04596 5.32641-.11505 7.98388-.07331 5.82248-.5847 11.63123-1.52996 17.37694-.98358 5.75205-2.81838 11.32005-5.44692 16.52567-5.32769 10.4595-13.83076 18.96297-24.28973 24.29091-5.20318 2.62506-10.76889 4.45908-16.51332 5.44145-5.75177.94909-11.56106 1.46102-17.38185 1.53006-2.66062.06876-5.32194.10899-7.98344.12064-3.16347.01845-6.32117.01845-9.4789.01845H82.763037c-3.157722 0-6.315448 0-9.478915-.01566-2.661473-.01046-5.322791-.04822-7.983448-.11506-5.824309-.07433-11.634727-.58769-17.381854-1.53582-5.746015-.97787-11.313705-2.81856-16.513316-5.44148-10.457863-5.32693-18.960738-13.82823-24.2897226-24.28535-2.6277419-5.20884-4.4635923-10.78066-5.4469085-16.53141-.9452431-5.74378-1.45667872-11.55061-1.52996772-17.37119-.06905571-2.66322-.10345128-5.32641-.11509286-7.98961C0 188.1338 0 184.98166 0 181.81805V82.76764c0-3.163642 0-6.327264.02381232-9.490883.01058332-2.657469.04603715-5.320662.11509286-7.978104.073289-5.820588.58480396-11.627421 1.52996772-17.37123.9835545-5.752035 2.8183732-11.320026 5.4469085-16.531388C12.44347 20.936537 20.94653 12.433022 31.405504 7.105087c5.201698-2.6237116 10.765317-4.4576689 16.507578-5.4414416C53.664836.72030095 59.474116.20838561 65.294906.13361445c2.663091-.06905618 5.326155-.10345197 7.983448-.11509364C76.441844 0 79.605315 0 82.757272 0H181.8142c3.16349 0 6.32697 0 9.48468.01852081 2.66148.01058332 5.32276.04815412 7.98344.11509364 5.82079.07487699 11.63008.5866865 17.37609 1.53003095 5.75176.9836141 11.31374 2.8185237 16.51908 5.4414416 10.46158 5.326321 18.96693 13.830101 24.29547 24.290948 2.62552 5.207235 4.45944 10.777107 5.44116 16.525646.94534 5.745715 1.45676 11.554449 1.52998 17.376972.06909 2.663184.10341 5.3264.11506 7.983845.02385 3.163623.02385 6.3215.02385 9.479374Z" fill="url(#c)"/><path d="M53.451969 57.791232c-13.361451-.000005-20.379091 8.153529-20.379091 20.37909V186.41266c0 12.22555 7.01764 20.3791 20.379091 20.3791H211.13103c13.36146 0 20.3791-8.15355 20.3791-20.3791V78.170322c0-12.225561-7.01764-20.379093-20.3791-20.37909Z" fill="#d9d7cc"/><path d="M55.060655 66.145768c-10.576026 0-13.72576 6.338213-13.72576 14.211519v51.812793l46.674612.08629c12.469643.0231 17.575573 5.03972 22.771703 12.05919 1.32334 1.7877 2.93315 4.21066 4.50515 5.78414 4.69406 4.69845 10.84943 7.04553 17.00513 7.04556 6.15573.00003 12.3111-2.3471 17.00516-7.04556 1.572-1.57347 3.18181-3.99644 4.50514-5.78414 5.19613-7.01947 10.30205-12.03613 22.77171-12.05919l46.67461-.08629V80.357287c0-7.873306-3.14974-14.211519-13.72575-14.211519Z" fill="#f16d5e"/><path d="M55.060655 66.145748c-10.576026 0-13.72576 6.338213-13.72576 14.211518v16.600093c0-7.873304 3.149734-14.211517 13.72576-14.211517H209.52236c10.576 0 13.72575 6.338213 13.72575 14.211517V80.357266c0-7.873305-3.14975-14.211518-13.72575-14.211518Z" fill="#3b99c9"/><path clip-path="url(#d)" d="M-31.594972 71.297543c-10.576039 0-13.725777 6.338221-13.725777 14.211536v16.600111c0-7.873312 3.149738-14.211532 13.725777-14.211532H122.86692c10.57602 0 13.72577 6.33822 13.72577 14.211532V85.509079c0-7.873315-3.14975-14.211536-13.72577-14.211536Z" transform="matrix(.99999875 0 0 1.0000037 86.655587 11.448446)" fill="#000" fill-opacity=".317757" filter="url(#e)"/><path d="M55.060655 82.745843c-10.576026 0-13.72576 6.338213-13.72576 14.211516v16.600091c0-7.8733 3.149734-14.211514 13.72576-14.211514H209.52236c10.576 0 13.72575 6.338214 13.72575 14.211514V96.957359c0-7.873303-3.14975-14.211516-13.72575-14.211516Z" fill="#ffb006"/><path transform="matrix(.99999875 0 0 1.0000037 86.655587 28.048623)" d="M-31.594972 71.297543c-10.576039 0-13.725777 6.338221-13.725777 14.211536v16.600111c0-7.873312 3.149738-14.211532 13.725777-14.211532H122.86692c10.57602 0 13.72577 6.33822 13.72577 14.211532V85.509079c0-7.873315-3.14975-14.211536-13.72577-14.211536Z" clip-path="url(#d)" fill="#000" fill-opacity=".313725" filter="url(#e)"/><path d="M55.060655 99.345937c-10.576026 0-13.72576 6.338213-13.72576 14.211513v16.60009c0-7.87332 3.149734-14.21152 13.72576-14.21152H209.52236c10.576 0 13.72575 6.3382 13.72575 14.21152v-16.60009c0-7.8733-3.14975-14.211513-13.72575-14.211513Z" fill="#51be3c"/><path clip-path="url(#d)" d="M-31.594972 71.297543c-10.576039 0-13.725777 6.338221-13.725777 14.211536v16.600111c0-7.873312 3.149738-14.211532 13.725777-14.211532H122.86692c10.57602 0 13.72577 6.33822 13.72577 14.211532V85.509079c0-7.873315-3.14975-14.211536-13.72577-14.211536Z" transform="matrix(.99999875 0 0 1.0000037 86.655588 44.6488)" fill="#000" fill-opacity=".313725" filter="url(#e)"/><path clip-path="url(#f)" d="M77.738281 174.23438C27.238245 174.23436.71484375 205.05091.71484375 251.25781v409.10547c0 46.20688 26.52340125 77.02344 77.02343725 77.02344H673.69141c50.50004 0 77.02343-30.81656 77.02343-77.02344V251.25781c0-46.2069-26.52339-77.02344-77.02343-77.02343Zm6.080078 31.57617H667.61133c39.97239 0 51.87695 23.95548 51.87695 53.71289v195.82812l-176.4082.32617c-47.12944.0872-66.42745 19.04781-86.06641 45.57813-5.00156 6.75662-11.0859 15.91432-17.02734 21.86133-17.74131 17.75792-41.00574 26.62902-64.27149 26.6289-23.26574-.00011-46.53018-8.87102-64.27148-26.6289-5.94145-5.94705-12.02579-15.10471-17.02734-21.86133-19.63896-26.53032-38.93698-45.49082-86.06641-45.57813l-176.408204-.32617V259.52344c0-29.75741 11.904523-53.71289 51.876953-53.71289Z" transform="matrix(.264583 0 0 .26458431 32.883741 11.691836)" fill="#580900" fill-opacity=".299065" filter="url(#g)"/><path d="M33.07288 120.00729h8.262017v12.16279H33.07288Z" fill="url(#h)"/><path d="M223.24811 120.00729h8.26202v12.16279h-8.26202Z" fill="url(#i)"/></svg>