<?xml version="1.0" encoding="UTF-8" standalone="no"?>
<svg
   id="Layer_1"
   style="enable-background:new 0 0 100 100;"
   version="1.1"
   viewBox="0 0 100 100"
   xml:space="preserve"
   sodipodi:docname="camera.svg"
   inkscape:version="1.3.2 (091e20e, 2023-11-25, custom)"
   xmlns:inkscape="http://www.inkscape.org/namespaces/inkscape"
   xmlns:sodipodi="http://sodipodi.sourceforge.net/DTD/sodipodi-0.dtd"
   xmlns="http://www.w3.org/2000/svg"
   xmlns:svg="http://www.w3.org/2000/svg"><defs
     id="defs4" /><sodipodi:namedview
     id="namedview4"
     pagecolor="#ffffff"
     bordercolor="#000000"
     borderopacity="0.25"
     inkscape:showpageshadow="2"
     inkscape:pageopacity="0.0"
     inkscape:pagecheckerboard="0"
     inkscape:deskcolor="#d1d1d1"
     inkscape:zoom="7.73"
     inkscape:cx="50"
     inkscape:cy="50"
     inkscape:window-width="1920"
     inkscape:window-height="1057"
     inkscape:window-x="-8"
     inkscape:window-y="-8"
     inkscape:window-maximized="1"
     inkscape:current-layer="Layer_1" /><style
     type="text/css"
     id="style1">
	.st0{fill:url(#Background_13_);}
	.st1{fill:url(#path-2_7_);}
	.st2{filter:url(#Adobe_OpacityMaskFilter);}
	.st3{fill:#FFFFFF;}
	.st4{mask:url(#mask-3_1_);fill:#FFFFFF;}
	.st5{fill:url(#SVGID_1_);}
	.st6{fill:#1E1E1F;}
	.st7{fill:url(#Oval_6_);}
	.st8{stroke:#000000;stroke-width:0.3;}
	.st9{fill:#2B2A2A;}
	.st10{fill:#FF9500;}
	.st11{fill:url(#Background_14_);}
	.st12{fill:url(#path-2_8_);}
	.st13{filter:url(#Adobe_OpacityMaskFilter_1_);}
	.st14{mask:url(#mask-3_2_);}
	.st15{fill:#FFFFFF;fill-opacity:0.7;}
	.st16{fill:url(#Background_15_);}
	.st17{fill:url(#Background_16_);}
	.st18{fill:url(#Background_17_);}
	.st19{filter:url(#Adobe_OpacityMaskFilter_2_);}
	.st20{mask:url(#mask-2_6_);fill-opacity:0.29;}
	.st21{filter:url(#Adobe_OpacityMaskFilter_3_);}
	.st22{mask:url(#mask-2_5_);}
	.st23{fill:url(#path-4_2_);}
	.st24{filter:url(#Adobe_OpacityMaskFilter_4_);}
	.st25{mask:url(#mask-2_4_);}
	.st26{fill:#AAAAAA;}
	.st27{fill:url(#Background_18_);}
	.st28{fill:#141416;}
	.st29{filter:url(#Adobe_OpacityMaskFilter_5_);}
	.st30{mask:url(#mask-2_3_);fill:url(#Chart_1_);stroke:#FFFFFF;stroke-width:0.75;}
	.st31{filter:url(#Adobe_OpacityMaskFilter_6_);}
	.st32{mask:url(#mask-2_2_);}
	.st33{fill:#01A6F1;}
	.st34{filter:url(#Adobe_OpacityMaskFilter_7_);}
	.st35{mask:url(#mask-2_1_);fill:#777778;}
	.st36{fill:url(#Background_19_);}
	.st37{fill:#2E2E30;}
	.st38{fill:#7F7F7F;}
	.st39{fill:#777777;}
	.st40{fill:none;}
	.st41{fill:url(#SVGID_2_);}
	.st42{fill:url(#Oval_7_);}
	.st43{filter:url(#Adobe_OpacityMaskFilter_8_);}
	.st44{mask:url(#mask-3_3_);fill:#FF1414;}
	.st45{filter:url(#Adobe_OpacityMaskFilter_9_);}
	.st46{mask:url(#mask-2_8_);}
	.st47{fill:#1BADF8;}
	.st48{fill:#63DA38;}
	.st49{filter:url(#Adobe_OpacityMaskFilter_10_);}
	.st50{mask:url(#mask-2_7_);}
	.st51{fill:#B7B7B7;}
	.st52{filter:url(#Adobe_OpacityMaskFilter_11_);}
	.st53{mask:url(#mask-2_24_);fill:url(#Red_1_);}
	.st54{filter:url(#Adobe_OpacityMaskFilter_12_);}
	.st55{mask:url(#mask-2_23_);fill:url(#Orange_1_);}
	.st56{filter:url(#Adobe_OpacityMaskFilter_13_);}
	.st57{mask:url(#mask-2_22_);fill:url(#Yellow_1_);}
	.st58{filter:url(#Adobe_OpacityMaskFilter_14_);}
	.st59{mask:url(#mask-2_21_);fill:url(#Green_1_);}
	.st60{filter:url(#Adobe_OpacityMaskFilter_15_);}
	.st61{mask:url(#mask-2_20_);fill:url(#Turquoise_1_);}
	.st62{filter:url(#Adobe_OpacityMaskFilter_16_);}
	.st63{mask:url(#mask-2_19_);fill:url(#Blue_1_);}
	.st64{filter:url(#Adobe_OpacityMaskFilter_17_);}
	.st65{mask:url(#mask-2_18_);fill:url(#Purple_1_);}
	.st66{filter:url(#Adobe_OpacityMaskFilter_18_);}
	.st67{mask:url(#mask-2_17_);fill:url(#Pink_1_);}
	.st68{fill:url(#Background_20_);}
	.st69{fill:#353535;}
	.st70{fill:url(#SVGID_3_);}
</style><linearGradient
     gradientUnits="userSpaceOnUse"
     id="SVGID_1_"
     x1="66.8584"
     x2="71.3611"
     y1="40.4606"
     y2="40.4606"><stop
       offset="0"
       style="stop-color:#FFDB4C"
       id="stop3" /><stop
       offset="1"
       style="stop-color:#FFCD02"
       id="stop4" /></linearGradient><g
     id="g4"
     transform="matrix(1.1111111,0,0,1.1111111,-5.5555555,-5.5555555)"><g
       id="g2"><linearGradient
         gradientTransform="matrix(60,0,0,-60,32391,37581)"
         gradientUnits="userSpaceOnUse"
         id="Background_13_"
         x1="-539.01691"
         x2="-539.01691"
         y1="626.26617"
         y2="624.76672"><stop
           offset="0"
           style="stop-color:#EAEAEA"
           id="stop1" /><stop
           offset="1"
           style="stop-color:#BABEC3"
           id="stop2" /></linearGradient><path
         class="st0"
         d="m 63.6,5 c 9,0 13.5,0 18.4,1.5 5.3,1.9 9.5,6.1 11.4,11.4 1.6,4.9 1.6,9.5 1.6,18.5 v 27.2 c 0,9 0,13.5 -1.5,18.4 -1.9,5.3 -6.1,9.5 -11.4,11.4 C 77.1,95 72.6,95 63.6,95 H 36.4 C 27.4,95 22.9,95 18,93.5 12.6,91.5 8.5,87.4 6.5,82 5,77.2 5,72.7 5,63.6 V 36.4 C 5,27.4 5,22.9 6.5,18 8.5,12.7 12.6,8.5 18,6.6 22.8,5 27.3,5 36.4,5 Z"
         id="Background_12_"
         style="fill:url(#Background_13_)" /></g><g
       id="Symbols_13_"><g
         id="Graphics-_x2F_-Custom-Icons-_x2F_-iMessage-_x2F_-Camera"><path
           class="st69"
           d="m 41,24.5 h 18 c 1.2,0 2.9,0.8 3.6,1.8 l 5,7.3 c 0.5,0.7 1.3,1.1 2.1,1.1 h 10.7 c 2.5,0 4.5,2 4.5,4.5 v 33 c 0,2.5 -2,4.5 -4.5,4.5 H 19.6 c -2.5,0 -4.5,-2 -4.5,-4.5 v -33 c 0,-2.5 2,-4.5 4.5,-4.5 h 10.7 c 0.8,0 1.6,-0.4 2.1,-1.1 l 5,-7.3 c 0.7,-1 2.3,-1.8 3.6,-1.8 z m 25.9,16 c 0,1.3 1,2.3 2.3,2.3 1.2,0 2.3,-1 2.3,-2.3 0,-1.3 -1,-2.3 -2.3,-2.3 -1.3,0 -2.3,1 -2.3,2.3 z M 34.2,55.3 c 0,8.8 7.1,15.9 15.8,15.9 8.7,0 15.8,-7.1 15.8,-15.9 0,-8.8 -7.1,-15.9 -15.8,-15.9 -8.7,0 -15.8,7.1 -15.8,15.9 z M 21.8,26.8 h 4.5 c 1.2,0 2.2,1 2.2,2.3 v 2.3 h -9 v -2.3 c 0.1,-1.3 1.1,-2.3 2.3,-2.3 z m 15.8,28.5 c 0,-6.9 5.5,-12.5 12.4,-12.5 6.9,0 12.4,5.6 12.4,12.5 0,6.9 -5.5,12.5 -12.4,12.5 -6.9,0 -12.4,-5.6 -12.4,-12.5 z"
           id="Camera-Icon" /></g></g><path
       class="st5"
       d="m 66.9,40.5 c 0,1.3 1,2.3 2.3,2.3 1.2,0 2.3,-1 2.3,-2.3 0,-1.3 -1,-2.3 -2.3,-2.3 -1.3,0 -2.3,1 -2.3,2.3 z"
       id="path4"
       style="fill:url(#SVGID_1_)" /></g></svg>
