<?xml version="1.0" encoding="UTF-8" standalone="no"?>
<svg
   id="Layer_1"
   style="enable-background:new 0 0 100 100;"
   version="1.1"
   viewBox="0 0 100 100"
   xml:space="preserve"
   sodipodi:docname="phone.svg"
   inkscape:version="1.3.2 (091e20e, 2023-11-25, custom)"
   xmlns:inkscape="http://www.inkscape.org/namespaces/inkscape"
   xmlns:sodipodi="http://sodipodi.sourceforge.net/DTD/sodipodi-0.dtd"
   xmlns="http://www.w3.org/2000/svg"
   xmlns:svg="http://www.w3.org/2000/svg"><defs
   id="defs2" /><sodipodi:namedview
   id="namedview2"
   pagecolor="#ffffff"
   bordercolor="#000000"
   borderopacity="0.25"
   inkscape:showpageshadow="2"
   inkscape:pageopacity="0.0"
   inkscape:pagecheckerboard="0"
   inkscape:deskcolor="#d1d1d1"
   inkscape:zoom="4.305"
   inkscape:cx="6.9686411"
   inkscape:cy="64.924506"
   inkscape:window-width="1920"
   inkscape:window-height="1057"
   inkscape:window-x="-8"
   inkscape:window-y="-8"
   inkscape:window-maximized="1"
   inkscape:current-layer="Layer_1" />
   <style
   type="text/css"
   id="style1">
    .st0 {
      fill: url(#Background_13_);
    }

    .st1 {
      fill: url(#path-2_7_);
    }

    .st2 {
      filter: url(#Adobe_OpacityMaskFilter);
    }

    .st3 {
      fill: #FFFFFF;
    }

    .st4 {
      mask: url(#mask-3_1_);
      fill: #FFFFFF;
    }

    .st5 {
      fill: url(#SVGID_1_);
    }

    .st6 {
      fill: #1E1E1F;
    }

    .st7 {
      fill: url(#Oval_6_);
    }

    .st8 {
      stroke: #000000;
      stroke-width: 0.3;
    }

    .st9 {
      fill: #2B2A2A;
    }

    .st10 {
      fill: #FF9500;
    }

    .st11 {
      fill: url(#Background_14_);
    }

    .st12 {
      fill: url(#path-2_8_);
    }

    .st13 {
      filter: url(#Adobe_OpacityMaskFilter_1_);
    }

    .st14 {
      mask: url(#mask-3_2_);
    }

    .st15 {
      fill: #FFFFFF;
      fill-opacity: 0.7;
    }

    .st16 {
      fill: url(#Background_15_);
    }

    .st17 {
      fill: url(#Background_16_);
    }

    .st18 {
      fill: url(#Background_17_);
    }

    .st19 {
      filter: url(#Adobe_OpacityMaskFilter_2_);
    }

    .st20 {
      mask: url(#mask-2_6_);
      fill-opacity: 0.29;
    }

    .st21 {
      filter: url(#Adobe_OpacityMaskFilter_3_);
    }

    .st22 {
      mask: url(#mask-2_5_);
    }

    .st23 {
      fill: url(#path-4_2_);
    }

    .st24 {
      filter: url(#Adobe_OpacityMaskFilter_4_);
    }

    .st25 {
      mask: url(#mask-2_4_);
    }

    .st26 {
      fill: #AAAAAA;
    }

    .st27 {
      fill: url(#Background_18_);
    }

    .st28 {
      fill: #141416;
    }

    .st29 {
      filter: url(#Adobe_OpacityMaskFilter_5_);
    }

    .st30 {
      mask: url(#mask-2_3_);
      fill: url(#Chart_1_);
      stroke: #FFFFFF;
      stroke-width: 0.75;
    }

    .st31 {
      filter: url(#Adobe_OpacityMaskFilter_6_);
    }

    .st32 {
      mask: url(#mask-2_2_);
    }

    .st33 {
      fill: #01A6F1;
    }

    .st34 {
      filter: url(#Adobe_OpacityMaskFilter_7_);
    }

    .st35 {
      mask: url(#mask-2_1_);
      fill: #777778;
    }

    .st36 {
      fill: url(#Background_19_);
    }

    .st37 {
      fill: #2E2E30;
    }

    .st38 {
      fill: #7F7F7F;
    }

    .st39 {
      fill: #777777;
    }

    .st40 {
      fill: none;
    }

    .st41 {
      fill: url(#SVGID_2_);
    }

    .st42 {
      fill: url(#Oval_7_);
    }

    .st43 {
      filter: url(#Adobe_OpacityMaskFilter_8_);
    }

    .st44 {
      mask: url(#mask-3_3_);
      fill: #FF1414;
    }

    .st45 {
      filter: url(#Adobe_OpacityMaskFilter_9_);
    }

    .st46 {
      mask: url(#mask-2_8_);
    }

    .st47 {
      fill: #1BADF8;
    }

    .st48 {
      fill: #63DA38;
    }

    .st49 {
      filter: url(#Adobe_OpacityMaskFilter_10_);
    }

    .st50 {
      mask: url(#mask-2_7_);
    }

    .st51 {
      fill: #B7B7B7;
    }

    .st52 {
      filter: url(#Adobe_OpacityMaskFilter_11_);
    }

    .st53 {
      mask: url(#mask-2_24_);
      fill: url(#Red_1_);
    }

    .st54 {
      filter: url(#Adobe_OpacityMaskFilter_12_);
    }

    .st55 {
      mask: url(#mask-2_23_);
      fill: url(#Orange_1_);
    }

    .st56 {
      filter: url(#Adobe_OpacityMaskFilter_13_);
    }

    .st57 {
      mask: url(#mask-2_22_);
      fill: url(#Yellow_1_);
    }

    .st58 {
      filter: url(#Adobe_OpacityMaskFilter_14_);
    }

    .st59 {
      mask: url(#mask-2_21_);
      fill: url(#Green_1_);
    }

    .st60 {
      filter: url(#Adobe_OpacityMaskFilter_15_);
    }

    .st61 {
      mask: url(#mask-2_20_);
      fill: url(#Turquoise_1_);
    }

    .st62 {
      filter: url(#Adobe_OpacityMaskFilter_16_);
    }

    .st63 {
      mask: url(#mask-2_19_);
      fill: url(#Blue_1_);
    }

    .st64 {
      filter: url(#Adobe_OpacityMaskFilter_17_);
    }

    .st65 {
      mask: url(#mask-2_18_);
      fill: url(#Purple_1_);
    }

    .st66 {
      filter: url(#Adobe_OpacityMaskFilter_18_);
    }

    .st67 {
      mask: url(#mask-2_17_);
      fill: url(#Pink_1_);
    }

    .st68 {
      fill: url(#Background_20_);
    }

    .st69 {
      fill: #353535;
    }

    .st70 {
      fill: url(#SVGID_3_);
    }
   </style>
   <g
   id="Symbols_11_"
   transform="matrix(1.1111111,0,0,1.1111111,-5.5555545,-5.5555555)">
      <g
   id="Graphics-_x2F_-App-Icons-_x2F_-Phone">
         <g
   id="Phone-Icon">
            <linearGradient
   gradientTransform="matrix(60,0,0,-60,-17169,37581)"
   gradientUnits="userSpaceOnUse"
   id="Background_13_"
   x1="286.9837"
   x2="286.9837"
   y1="626.26599"
   y2="624.76672">
               <stop
   offset="0"
   style="stop-color:#67FF81"
   id="stop1" />
               <stop
   offset="1"
   style="stop-color:#01B41F"
   id="stop2" />
            </linearGradient>
            <path
   class="st0"
   d="m 63.6,5 c 9,0 13.5,0 18.4,1.5 5.3,1.9 9.5,6.1 11.4,11.4 1.6,5 1.6,9.5 1.6,18.5 v 27.2 c 0,9 0,13.5 -1.5,18.4 -1.9,5.3 -6.1,9.5 -11.4,11.4 C 77.2,95 72.7,95 63.6,95 H 36.4 C 27.4,95 22.9,95 18,93.5 12.7,91.5 8.5,87.4 6.6,82 5,77.2 5,72.7 5,63.6 V 36.4 C 5,27.4 5,22.9 6.5,18 8.5,12.7 12.7,8.5 18,6.6 22.9,5 27.4,5 36.4,5 Z"
   id="Background_11_"
   style="fill:url(#Background_13_)" />
            <path
   class="st3"
   d="m 25.7,44.3 c -3.3,-6 -4.6,-10.9 -4.6,-14.2 0,-3.3 0.8,-4.2 1.6,-5 0.8,-0.8 4.5,-3 5.2,-3.5 0.6,-0.4 3,-1.3 4.5,0.9 1.5,2.2 4.3,6.5 6.3,9.4 3.1,4.1 0.6,5.9 -0.2,7 -1.5,2 -2.3,2.5 -2.3,4.9 0,2.4 6.8,9.4 8.4,11.1 1.6,1.7 8.4,7.6 10.5,8 2.1,0.3 5,-1.9 5.6,-2.5 3.1,-2.4 4.8,-0.6 6.2,0.2 1.4,0.8 7.8,4.8 9.8,6.1 1.9,1.3 1.7,3.4 1.7,3.4 0,0 -1.3,3.9 -4.3,6.8 -0.7,0.7 -2,1.6 -5.1,1.6 -3.1,0 -6.5,-0.6 -14.5,-5 C 48,69.9 41.8,64.3 38.5,61 35.2,57.8 29.5,51.2 25.7,44.3 Z"
   id="path2" />
         </g>
      </g>
   </g>
</svg>
